# Blender 4.0.2
# www.blender.org
o Cube.001
v -0.323608 -0.179671 0.259627
v -0.288435 0.180075 0.323608
v -0.323608 -0.179671 -0.259627
v -0.288435 0.180075 -0.323608
v 0.323608 -0.243652 0.218863
v 0.218863 -0.243652 0.323608
v 0.218863 -0.243652 -0.323608
v 0.323608 -0.243652 -0.218863
v 0.133948 0.077527 0.323608
v 0.323608 0.085740 0.218863
v 0.031400 0.180075 0.323608
v 0.194100 0.215248 0.218863
v 0.194100 0.215248 -0.218863
v 0.031400 0.180075 -0.323608
v 0.133948 0.077527 -0.323608
v 0.323608 0.085740 -0.218863
v -0.288435 0.077527 0.323608
v -0.288435 0.077527 -0.323608
v -0.323608 0.042354 0.259627
v -0.323608 0.151267 0.259627
v 0.218863 0.042354 -0.323608
v 0.045969 0.215248 -0.323608
v 0.045969 0.215248 0.323608
v 0.218863 0.042354 0.323608
v -0.323608 0.151267 -0.259627
v -0.323608 0.042354 -0.259627
v -0.288435 0.077527 0.283793
v -0.288435 0.180075 0.283793
v 0.133948 0.077527 -0.283793
v 0.031400 0.180075 -0.283793
v 0.031400 0.180075 0.283793
v 0.133948 0.077527 0.283793
v -0.288435 0.180075 -0.283793
v -0.288435 0.077527 -0.283793
v 0.214180 0.195168 -0.190467
v 0.214180 0.195168 0.190467
v 0.303528 0.105820 0.190467
v 0.303528 0.105820 -0.190467
v 0.218020 0.071594 -0.303528
v 0.098958 0.190656 -0.303528
v 0.190296 0.190656 -0.238942
v 0.282605 0.098346 -0.238942
v 0.098958 0.190656 0.303528
v 0.218020 0.071594 0.303528
v 0.282605 0.098346 0.238942
v 0.190296 0.190656 0.238942
v 0.193674 0.174662 -0.190467
v 0.193674 0.174662 0.190467
v 0.283022 0.085314 0.190467
v 0.283022 0.085314 -0.190467
v 0.203520 0.057094 -0.283022
v 0.084458 0.176156 -0.283022
v 0.175796 0.176156 -0.218436
v 0.268105 0.083846 -0.218436
v 0.084458 0.176156 0.283022
v 0.203520 0.057094 0.283022
v 0.268105 0.083846 0.218436
v 0.175796 0.176156 0.218436
v -0.323608 -0.243652 -0.323608
v -0.323608 -0.243652 0.323608
v -0.323608 0.042354 0.323608
v -0.323608 0.215248 0.323608
v -0.323608 0.215248 -0.323608
v -0.323608 0.042354 -0.323608
v -0.275973 0.042354 0.187151
v -0.275973 0.042354 -0.259627
v -0.275973 -0.144609 0.039290
v -0.275973 -0.144609 0.187151
v -0.275973 0.116205 0.187151
v -0.275973 0.116205 0.039290
v -0.275973 -0.179671 -0.259627
v -0.275973 -0.179671 0.259627
v -0.275973 0.042354 0.259627
v -0.275973 0.151267 0.259627
v -0.275973 0.151267 -0.259627
v -0.275973 0.042354 0.039290
v -0.222783 0.042354 0.187151
v -0.222783 0.042354 0.039290
v -0.222783 -0.144609 0.039290
v -0.222783 -0.144609 0.187151
v -0.222783 0.116205 0.187151
v -0.222783 0.116205 0.039290
vn -0.0000 -1.0000 -0.0000
vn 0.7071 0.7071 -0.0000
vn -0.0000 1.0000 -0.0000
vn 0.5000 0.5000 -0.7071
vn 0.5000 0.5000 0.7071
vn 0.7071 -0.0000 -0.7071
vn 0.7071 -0.0000 0.7071
vn 1.0000 -0.0000 -0.0000
vn -0.0000 -0.0000 -1.0000
vn -0.0000 -0.0000 1.0000
vn -0.7071 -0.7071 -0.0000
vn 0.7071 -0.7071 -0.0000
vn -0.7071 0.7071 -0.0000
vn 0.2887 -0.8660 -0.4082
vn -0.5000 -0.5000 -0.7071
vn -0.5381 0.8191 0.1988
vn -0.5381 0.8191 -0.1988
vn -0.5000 -0.5000 0.7071
vn 0.2887 -0.8660 0.4082
vn -1.0000 -0.0000 -0.0000
vt 0.578743 0.225286
vt 0.578743 0.024714
vt 0.606048 0.387129
vt 0.600515 0.263586
vt 0.657953 0.698572
vt 0.581987 0.551428
vt 0.657953 0.551428
vt 0.557315 0.823260
vt 0.527454 0.986414
vt 0.334540 0.500000
vt 0.375000 0.709540
vt 0.125000 0.750000
vt 0.875000 0.500000
vt 0.732243 0.750000
vt 0.732243 0.500000
vt 0.675025 0.709540
vt 0.675025 0.540460
vt 0.558352 0.459215
vt 0.613591 0.448506
vt 0.570764 0.484162
vt 0.558352 0.790785
vt 0.613591 0.801494
vt 0.613591 0.836776
vt 0.544787 0.459540
vt 0.375000 0.540460
vt 0.375000 0.459540
vt 0.544786 0.790460
vt 0.375000 0.709540
vt 0.564916 0.709540
vt 0.564916 0.540460
vt 0.500000 0.024714
vt 0.402963 0.024714
vt 0.375000 1.000000
vt 0.375000 0.790460
vt 0.500000 0.250000
vt 0.375000 0.250000
vt 0.625000 1.000000
vt 0.500000 1.000000
vt 0.557315 0.426740
vt 0.625000 0.392757
vt 0.625000 0.857243
vt 0.606048 0.862871
vt 0.600515 0.986414
vt 0.625000 0.250000
vt 0.527454 0.263586
vt 0.675025 0.709540
vt 0.564916 0.709540
vt 0.581987 0.698572
vt 0.613591 0.413224
vt 0.625000 0.449975
vt 0.564916 0.500000
vt 0.570764 0.765838
vt 0.625000 0.800025
vt 0.564916 0.750000
vt 0.402963 0.225286
vt 0.375000 0.000000
vt 0.500000 0.000000
vt 0.625000 0.000000
vt 0.500000 0.225286
vt 0.418287 0.211743
vt 0.500000 0.211743
vt 0.553394 0.211743
vt 0.418287 0.038257
vt 0.553394 0.038257
vt 0.500000 0.038257
vt 0.125000 0.500000
vt 0.334540 0.750000
vt 0.875000 0.750000
s 0
f 25/1/1 74/2/1 20/2/1
f 14/3/1 33/4/1 4/4/1
f 48/5/2 50/6/2 47/7/2
f 9/8/3 27/9/3 17/9/3
f 7/10/1 5/11/1 60/12/1
f 63/13/3 23/14/3 22/15/3
f 22/15/3 12/16/3 13/17/3
f 51/18/4 53/19/4 54/20/4
f 56/21/5 58/22/5 55/23/5
f 21/24/6 8/25/6 7/26/6
f 24/27/7 5/28/7 10/29/7
f 16/30/8 5/28/8 8/25/8
f 19/31/9 72/32/9 1/32/9
f 24/27/10 60/33/10 6/34/10
f 64/35/9 7/26/9 59/36/9
f 17/9/10 62/37/10 61/38/10
f 15/39/9 22/40/9 21/24/9
f 9/8/10 23/41/10 11/42/10
f 2/43/10 23/41/10 62/37/10
f 4/4/9 22/40/9 14/3/9
f 4/4/9 64/35/9 63/44/9
f 9/8/10 61/38/10 24/27/10
f 15/39/9 64/35/9 18/45/9
f 34/45/9 30/3/9 29/39/9
f 31/42/10 27/9/10 32/8/10
f 11/42/11 32/8/11 9/8/11
f 17/9/8 28/43/8 2/43/8
f 18/45/3 29/39/3 15/39/3
f 4/4/8 34/45/8 18/45/8
f 2/43/1 31/42/1 11/42/1
f 15/39/11 30/3/11 14/3/11
f 12/46/2 35/7/2 13/17/2
f 10/47/2 36/5/2 12/46/2
f 16/30/2 37/48/2 10/47/2
f 16/30/2 35/7/2 38/6/2
f 21/24/4 40/49/4 39/18/4
f 13/50/4 40/49/4 22/40/4
f 13/50/4 42/20/4 41/19/4
f 21/24/4 42/20/4 16/51/4
f 24/27/5 43/23/5 23/41/5
f 24/27/5 45/52/5 44/21/5
f 12/53/5 45/52/5 10/54/5
f 12/53/5 43/23/5 46/22/5
f 36/5/12 47/7/12 35/7/12
f 37/48/9 48/5/9 36/5/9
f 38/6/13 49/48/13 37/48/13
f 38/6/10 47/7/10 50/6/10
f 40/49/5 51/18/5 39/18/5
f 41/19/14 52/49/14 40/49/14
f 42/20/15 53/19/15 41/19/15
f 39/18/16 54/20/16 42/20/16
f 43/23/4 56/21/4 55/23/4
f 45/52/17 56/21/17 44/21/17
f 46/22/18 57/52/18 45/52/18
f 43/23/19 58/22/19 46/22/19
f 3/55/20 60/56/20 1/32/20
f 20/2/20 61/57/20 62/58/20
f 20/2/20 63/44/20 25/1/20
f 3/55/20 64/35/20 59/36/20
f 1/32/20 61/57/20 19/31/20
f 25/1/20 64/35/20 26/59/20
f 67/60/10 78/61/10 76/61/10
f 76/61/10 82/62/10 70/62/10
f 1/32/3 71/55/3 3/55/3
f 26/59/10 75/1/10 25/1/10
f 3/55/10 66/59/10 26/59/10
f 20/2/9 73/31/9 19/31/9
f 67/60/20 72/32/20 68/63/20
f 69/64/20 73/31/20 74/2/20
f 70/62/20 74/2/20 75/1/20
f 67/60/20 66/59/20 71/55/20
f 68/63/20 73/31/20 65/65/20
f 70/62/20 66/59/20 76/61/20
f 81/64/20 78/61/20 77/65/20
f 77/65/20 79/60/20 80/63/20
f 69/64/9 77/65/9 65/65/9
f 65/65/9 80/63/9 68/63/9
f 70/62/1 81/64/1 69/64/1
f 68/63/3 79/60/3 67/60/3
f 25/1/1 75/1/1 74/2/1
f 14/3/1 30/3/1 33/4/1
f 48/5/2 49/48/2 50/6/2
f 9/8/3 32/8/3 27/9/3
f 60/12/1 59/66/1 7/10/1
f 7/10/1 8/25/1 5/11/1
f 5/11/1 6/67/1 60/12/1
f 63/13/3 62/68/3 23/14/3
f 22/15/3 23/14/3 12/16/3
f 51/18/4 52/49/4 53/19/4
f 56/21/5 57/52/5 58/22/5
f 21/24/6 16/30/6 8/25/6
f 24/27/7 6/34/7 5/28/7
f 16/30/8 10/29/8 5/28/8
f 19/31/9 73/31/9 72/32/9
f 24/27/10 61/38/10 60/33/10
f 64/35/9 21/24/9 7/26/9
f 17/9/10 2/43/10 62/37/10
f 15/39/9 14/3/9 22/40/9
f 9/8/10 24/27/10 23/41/10
f 2/43/10 11/42/10 23/41/10
f 4/4/9 63/44/9 22/40/9
f 4/4/9 18/45/9 64/35/9
f 9/8/10 17/9/10 61/38/10
f 15/39/9 21/24/9 64/35/9
f 34/45/9 33/4/9 30/3/9
f 31/42/10 28/43/10 27/9/10
f 11/42/11 31/42/11 32/8/11
f 17/9/8 27/9/8 28/43/8
f 18/45/3 34/45/3 29/39/3
f 4/4/8 33/4/8 34/45/8
f 2/43/1 28/43/1 31/42/1
f 15/39/11 29/39/11 30/3/11
f 12/46/2 36/5/2 35/7/2
f 10/47/2 37/48/2 36/5/2
f 16/30/2 38/6/2 37/48/2
f 16/30/2 13/17/2 35/7/2
f 21/24/4 22/40/4 40/49/4
f 13/50/4 41/19/4 40/49/4
f 13/50/4 16/51/4 42/20/4
f 21/24/4 39/18/4 42/20/4
f 24/27/5 44/21/5 43/23/5
f 24/27/5 10/54/5 45/52/5
f 12/53/5 46/22/5 45/52/5
f 12/53/5 23/41/5 43/23/5
f 36/5/12 48/5/12 47/7/12
f 37/48/9 49/48/9 48/5/9
f 38/6/13 50/6/13 49/48/13
f 38/6/10 35/7/10 47/7/10
f 40/49/5 52/49/5 51/18/5
f 41/19/14 53/19/14 52/49/14
f 42/20/15 54/20/15 53/19/15
f 39/18/16 51/18/16 54/20/16
f 43/23/4 44/21/4 56/21/4
f 45/52/17 57/52/17 56/21/17
f 46/22/18 58/22/18 57/52/18
f 43/23/19 55/23/19 58/22/19
f 3/55/20 59/36/20 60/56/20
f 20/2/20 19/31/20 61/57/20
f 20/2/20 62/58/20 63/44/20
f 3/55/20 26/59/20 64/35/20
f 1/32/20 60/56/20 61/57/20
f 25/1/20 63/44/20 64/35/20
f 67/60/10 79/60/10 78/61/10
f 76/61/10 78/61/10 82/62/10
f 1/32/3 72/32/3 71/55/3
f 26/59/10 66/59/10 75/1/10
f 3/55/10 71/55/10 66/59/10
f 20/2/9 74/2/9 73/31/9
f 67/60/20 71/55/20 72/32/20
f 69/64/20 65/65/20 73/31/20
f 70/62/20 69/64/20 74/2/20
f 67/60/20 76/61/20 66/59/20
f 68/63/20 72/32/20 73/31/20
f 70/62/20 75/1/20 66/59/20
f 81/64/20 82/62/20 78/61/20
f 77/65/20 78/61/20 79/60/20
f 69/64/9 81/64/9 77/65/9
f 65/65/9 77/65/9 80/63/9
f 70/62/1 82/62/1 81/64/1
f 68/63/3 80/63/3 79/60/3
