# Blender 4.0.2
# www.blender.org
o Cube
v -0.450000 -0.500000 0.450000
v -0.450000 -0.450000 0.500000
v -0.500000 -0.450000 0.450000
v -0.450000 0.450000 0.500000
v -0.450000 0.500000 0.450000
v -0.500000 0.450000 0.450000
v -0.450000 -0.500000 -0.450000
v -0.500000 -0.450000 -0.450000
v -0.450000 -0.450000 -0.500000
v -0.450000 0.500000 -0.450000
v -0.450000 0.450000 -0.500000
v -0.500000 0.450000 -0.450000
v 0.450000 -0.500000 0.450000
v 0.500000 -0.450000 0.450000
v 0.450000 -0.450000 0.500000
v 0.450000 0.500000 0.450000
v 0.450000 0.450000 0.500000
v 0.500000 0.450000 0.450000
v 0.450000 -0.500000 -0.450000
v 0.450000 -0.450000 -0.500000
v 0.500000 -0.450000 -0.450000
v 0.450000 0.500000 -0.450000
v 0.500000 0.450000 -0.450000
v 0.450000 0.450000 -0.500000
vn -0.0000 -0.0000 1.0000
vn 1.0000 -0.0000 -0.0000
vn -0.0000 1.0000 -0.0000
vn -1.0000 -0.0000 -0.0000
vn -0.0000 -0.0000 -1.0000
vn -0.5774 -0.5774 0.5774
vn -0.5774 0.5774 0.5774
vn -0.5774 -0.5774 -0.5774
vn -0.5774 0.5774 -0.5774
vn 0.5774 -0.5774 0.5774
vn 0.5774 0.5774 0.5774
vn 0.5774 -0.5774 -0.5774
vn 0.5774 0.5774 -0.5774
vn -0.7071 -0.7071 -0.0000
vn -0.7071 -0.0000 0.7071
vn -0.7071 0.7071 -0.0000
vn -0.7071 -0.0000 -0.7071
vn -0.0000 -0.7071 -0.7071
vn -0.0000 0.7071 -0.7071
vn 0.7071 -0.0000 -0.7071
vn 0.7071 -0.7071 -0.0000
vn 0.7071 0.7071 -0.0000
vn 0.7071 -0.0000 0.7071
vn -0.0000 -0.7071 0.7071
vn -0.0000 0.7071 0.7071
vn -0.0000 -1.0000 -0.0000
vt 0.999900 0.000100
vt 0.000100 0.999900
vt 0.000100 0.000100
vt 0.000100 0.999900
vt 0.999900 0.000100
vt 0.999900 0.999900
vt 0.000100 0.999900
vt 0.999900 0.000100
vt 0.999900 0.999900
vt -0.000000 1.000000
vt 0.000100 0.999900
vt 0.999900 0.000100
vt 0.999900 0.999900
vt 0.999900 0.999900
vt 0.000100 0.000100
vt 0.000100 0.000100
vt 0.000100 0.000100
s 0
f 17/1/1 2/2/1 15/3/1
f 23/1/2 14/2/2 21/3/2
f 10/4/3 16/5/3 22/6/3
f 6/7/4 8/8/4 3/9/4
f 11/7/5 20/8/5 9/9/5
f 1/10/6 2/10/6 3/10/6
f 4/10/7 5/10/7 6/10/7
f 7/10/8 8/10/8 9/10/8
f 10/10/9 11/10/9 12/10/9
f 13/10/10 14/10/10 15/10/10
f 16/10/11 17/10/11 18/10/11
f 19/10/12 20/10/12 21/10/12
f 22/10/13 23/10/13 24/10/13
f 1/10/14 8/10/14 7/10/14
f 4/10/15 3/10/15 2/10/15
f 10/10/16 6/10/16 5/10/16
f 9/10/17 12/10/17 11/10/17
f 7/10/18 20/10/18 19/10/18
f 22/10/19 11/10/19 10/10/19
f 21/10/20 24/10/20 23/10/20
f 19/10/21 14/10/21 13/10/21
f 16/10/22 23/10/22 22/10/22
f 15/10/23 18/10/23 17/10/23
f 13/10/24 2/10/24 1/10/24
f 5/10/25 17/10/25 16/10/25
f 19/11/26 1/12/26 7/13/26
f 17/1/1 4/14/1 2/2/1
f 23/1/2 18/14/2 14/2/2
f 10/4/3 5/15/3 16/5/3
f 6/7/4 12/16/4 8/8/4
f 11/7/5 24/16/5 20/8/5
f 1/10/14 3/10/14 8/10/14
f 4/10/15 6/10/15 3/10/15
f 10/10/16 12/10/16 6/10/16
f 9/10/17 8/10/17 12/10/17
f 7/10/18 9/10/18 20/10/18
f 22/10/19 24/10/19 11/10/19
f 21/10/20 20/10/20 24/10/20
f 19/10/21 21/10/21 14/10/21
f 16/10/22 18/10/22 23/10/22
f 15/10/23 14/10/23 18/10/23
f 13/10/24 15/10/24 2/10/24
f 5/10/25 4/10/25 17/10/25
f 19/11/26 13/17/26 1/12/26
