# Blender 4.0.2
# www.blender.org
o Bolt
v -0.000000 -0.185582 -0.105047
v 0.000000 0.002997 -0.213938
v -0.000000 -0.185672 0.112766
v -0.000000 0.002873 0.200844
v 0.022655 -0.153493 0.093156
v 0.034155 -0.144168 -0.081225
v 0.000000 0.185575 -0.101629
v 0.000000 0.186067 0.109542
v 0.046345 0.001415 -0.154790
v 0.034155 0.183844 0.108188
v 0.080155 0.000743 -0.177594
v 0.023345 0.181200 -0.099861
v 0.046345 0.001698 0.198475
v 0.057845 -0.163423 0.097916
v 0.069345 -0.159067 -0.089882
v 0.057155 0.134341 -0.074299
v 0.068655 0.135885 0.080416
v 0.080845 0.000469 0.147435
v 0.092345 -0.121656 0.072296
v 0.103845 -0.118308 -0.066425
v 0.115345 -0.000507 -0.130684
v 0.103155 0.155082 0.091449
v 0.114655 -0.000202 0.166379
v 0.149155 -0.001161 -0.148525
v 0.092345 0.151573 -0.085122
v 0.126845 -0.138510 0.081193
v 0.138345 -0.134461 -0.075799
v 0.126155 0.110509 -0.062881
v 0.172155 -0.099387 -0.055610
v 0.183655 -0.002386 -0.108107
v 0.138345 0.112437 0.066756
v 0.149845 -0.001447 0.121277
v 0.161345 -0.102332 0.058823
v 0.206655 -0.111886 -0.062867
v 0.161345 0.123762 -0.071374
v 0.172845 0.128047 0.075725
v 0.184345 -0.002107 0.135683
v 0.195845 -0.115400 0.065575
v 0.218845 -0.003044 -0.121302
v 0.195155 0.088006 -0.052182
v 0.229655 -0.084530 0.046303
v 0.241155 -0.081639 -0.045455
v 0.252655 -0.004254 -0.086898
v 0.207345 0.090863 0.054197
v 0.218845 -0.003333 0.096815
v 0.252655 -0.003931 0.107789
v 0.275655 -0.090966 -0.050873
v 0.287155 -0.004839 -0.096818
v 0.230345 0.097862 -0.058663
v 0.241845 0.103540 0.061480
v 0.264845 -0.094166 0.051112
v 0.275655 0.071364 0.042856
v 0.310155 -0.065354 -0.036126
v 0.264845 0.066788 -0.042191
v 0.287845 -0.005183 0.074123
v 0.299345 -0.067832 0.034437
v 0.322345 -0.006099 -0.067216
v 0.344655 -0.072144 -0.040071
v 0.299345 0.074012 -0.047052
v 0.310845 0.081660 0.048772
v 0.322345 -0.005728 0.081792
v 0.333845 -0.074982 0.037932
v 0.356845 -0.006586 -0.074388
v 0.333155 0.047564 -0.033237
v 0.356155 -0.006966 0.053532
v 0.345345 0.053814 0.032658
v 0.368345 -0.052884 0.023686
v 0.379845 -0.050546 -0.027630
v 0.391345 -0.007857 -0.049680
v 0.367655 0.052780 -0.036807
v 0.390655 -0.007372 0.059304
v 0.402155 -0.058524 0.026522
v 0.413655 -0.056065 -0.030833
v 0.425155 -0.008111 -0.055884
v 0.379845 0.063184 0.038046
v 0.402155 0.030020 -0.025166
v 0.414345 0.039780 0.024508
v 0.425845 -0.008674 0.034984
v 0.437345 -0.040020 0.014315
v 0.448845 -0.038204 -0.020539
v 0.460345 -0.009548 -0.032355
v 0.000000 0.000000 0.000000
v 0.494155 -0.010883 -0.017159
v 0.437345 0.028956 -0.025137
v 0.448845 0.036786 0.022762
v 0.460345 -0.009545 0.024398
v 0.471845 -0.029184 0.006805
v 0.482655 0.018849 0.012390
v 0.494155 -0.010882 0.007620
v 0.494155 -0.021605 0.001412
v 0.494155 -0.021605 -0.010969
v 0.471845 0.009179 -0.015344
v 0.494155 -0.000155 -0.010972
vn 0.8176 -0.5758 -0.0002
vn 0.7709 -0.3185 -0.5516
vn 0.1843 0.9829 -0.0023
vn 0.0644 0.4451 0.8931
vn 0.0279 -0.5642 0.8251
vn -0.2623 -0.9625 -0.0688
vn -0.3732 -0.3933 -0.8402
vn 0.7600 0.2769 -0.5880
vn 0.8227 0.5663 -0.0499
vn 0.8155 0.3000 0.4950
vn 0.7934 -0.2754 0.5429
vn 0.7805 -0.6243 0.0333
vn 0.7714 -0.3455 -0.5343
vn -0.4834 0.4819 -0.7309
vn -0.4339 0.9007 0.0233
vn -0.4600 0.3602 0.8116
vn -0.4303 -0.5021 0.7502
vn -0.4263 -0.9028 -0.0571
vn -0.4115 -0.4052 -0.8164
vn 0.7699 0.2872 -0.5699
vn 0.7864 0.6148 -0.0604
vn 0.7731 0.3212 0.5470
vn 0.7484 -0.2988 0.5922
vn 0.7343 -0.6778 0.0363
vn 0.7292 -0.3724 -0.5742
vn -0.3947 0.5066 -0.7665
vn -0.3484 0.9371 0.0188
vn -0.3859 0.3664 0.8467
vn -0.3369 -0.5231 0.7829
vn -0.3439 -0.9373 -0.0566
vn -0.3297 -0.4188 -0.8461
vn 0.7284 0.3072 -0.6124
vn 0.7449 0.6627 -0.0775
vn 0.7325 0.3372 0.5914
vn 0.7032 -0.3212 0.6343
vn 0.6855 -0.7271 0.0378
vn 0.6704 -0.4079 -0.6198
vn -0.2890 0.5300 -0.7972
vn -0.2688 0.9632 0.0049
vn -0.3171 0.3585 0.8780
vn -0.2695 -0.5343 0.8012
vn -0.2557 -0.9648 -0.0624
vn -0.2519 -0.4275 -0.8682
vn 0.6791 0.3297 -0.6558
vn 0.6918 0.7151 -0.1000
vn 0.6833 0.3458 0.6430
vn 0.6429 -0.3432 0.6848
vn 0.6187 -0.7846 0.0410
vn 0.6073 -0.4355 -0.6644
vn -0.2229 0.5463 -0.8074
vn -0.2084 0.9777 -0.0261
vn -0.2500 0.3317 0.9096
vn -0.1895 -0.5500 0.8134
vn -0.1963 -0.9784 -0.0644
vn -0.1851 -0.4264 -0.8854
vn 0.6095 0.3536 -0.7095
vn 0.6445 0.7522 -0.1374
vn 0.6127 0.3486 0.7093
vn 0.5907 -0.3594 0.7224
vn 0.5523 -0.8324 0.0463
vn 0.5356 -0.4677 -0.7031
vn -0.1624 0.5510 -0.8186
vn -0.1557 0.9857 -0.0647
vn -0.2222 0.2811 0.9336
vn -0.1425 -0.5657 0.8122
vn -0.1575 -0.9843 -0.0801
vn -0.1534 -0.4206 -0.8942
vn 0.5492 0.3733 -0.7477
vn 0.5862 0.7840 -0.2044
vn 0.5255 0.3182 0.7890
vn 0.5173 -0.3763 0.7686
vn 0.4805 -0.8750 0.0588
vn 0.4658 -0.4949 -0.7336
vn -0.1446 0.5664 -0.8114
vn 0.0298 0.9794 -0.1997
vn 0.0688 0.2264 0.9716
vn 0.2484 -0.4681 0.8481
vn 0.3097 -0.9494 0.0527
vn 0.3445 -0.4727 -0.8111
vn -1.0000 -0.0000 -0.0000
vn 0.5107 0.4432 -0.7367
vn 0.5347 0.8041 -0.2598
vn 0.3485 0.1193 0.9297
vn 0.3722 -0.4889 0.7890
vn 0.3217 -0.9469 -0.0000
vn 0.1606 0.5171 -0.8407
vn 0.3739 0.4872 -0.7892
vn 0.4186 0.7944 -0.4402
vn 0.8108 -0.2477 0.5303
vn 0.9257 0.3277 0.1891
vn 1.0000 -0.0000 -0.0000
vn 0.7668 -0.6417 0.0163
vn 0.7311 -0.3555 -0.5824
vn 0.0643 0.9978 -0.0160
vn 0.0570 0.4465 0.8930
vn -0.2561 -0.5157 0.8176
vn -0.3990 -0.9158 -0.0457
vn -0.5217 -0.3831 -0.7623
vn 0.7899 0.2694 -0.5509
vn 0.7919 0.6072 -0.0649
vn 0.7858 0.3297 0.5232
vn 0.7680 -0.2816 0.5752
vn 0.7492 -0.6607 0.0462
vn 0.7356 -0.3783 -0.5619
vn -0.4663 0.4895 -0.7369
vn -0.4893 0.8720 0.0126
vn -0.4504 0.3607 0.8167
vn -0.4369 -0.4993 0.7482
vn -0.4356 -0.8984 -0.0551
vn -0.4329 -0.4044 -0.8056
vn 0.7472 0.2919 -0.5970
vn 0.7456 0.6616 -0.0800
vn 0.7437 0.3483 0.5706
vn 0.7215 -0.3031 0.6225
vn 0.7051 -0.7075 0.0484
vn 0.6888 -0.4065 -0.6003
vn -0.3790 0.5127 -0.7703
vn -0.4135 0.9105 0.0058
vn -0.3527 0.3656 0.8614
vn -0.3491 -0.5185 0.7806
vn -0.3503 -0.9350 -0.0551
vn -0.3257 -0.4187 -0.8477
vn 0.6964 0.3114 -0.6466
vn 0.7002 0.7071 -0.0992
vn 0.7026 0.3628 0.6122
vn 0.6739 -0.3235 0.6642
vn 0.6420 -0.7647 0.0564
vn 0.6341 -0.4362 -0.6385
vn -0.2946 0.5280 -0.7965
vn -0.3427 0.9394 -0.0116
vn -0.2829 0.3554 0.8909
vn -0.2572 -0.5387 0.8023
vn -0.2691 -0.9613 -0.0587
vn -0.2565 -0.4281 -0.8666
vn 0.6328 0.3317 -0.6996
vn 0.6478 0.7518 -0.1228
vn 0.6480 0.3742 0.6634
vn 0.6077 -0.3424 0.7166
vn 0.5783 -0.8136 0.0600
vn 0.5573 -0.4728 -0.6826
vn -0.2278 0.5446 -0.8071
vn -0.2738 0.9608 -0.0438
vn -0.2005 0.3231 0.9249
vn -0.1959 -0.5477 0.8134
vn -0.1997 -0.9778 -0.0632
vn -0.1898 -0.4274 -0.8839
vn 0.5762 0.3512 -0.7380
vn 0.5652 0.8049 -0.1809
vn 0.6077 0.3525 0.7116
vn 0.5411 -0.3526 0.7635
vn 0.5027 -0.8613 0.0734
vn 0.4918 -0.5005 -0.7125
vn -0.1677 0.5489 -0.8189
vn -0.2473 0.9644 -0.0938
vn -0.1562 0.2629 0.9521
vn -0.1614 -0.5580 0.8140
vn -0.1676 -0.9829 -0.0757
vn -0.1665 -0.4249 -0.8898
vn 0.5040 0.3633 -0.7836
vn 0.4618 0.8420 -0.2788
vn 0.5500 0.2991 0.7798
vn 0.4690 -0.3598 0.8066
vn 0.4285 -0.8986 0.0945
vn 0.4702 -0.4911 -0.7333
vn 0.0198 0.6344 -0.7727
vn 0.0761 0.9810 -0.1786
vn 0.2941 0.1065 0.9498
vn 0.3334 -0.5133 0.7908
vn 0.3392 -0.9404 0.0248
vn 0.3466 -0.4690 -0.8123
vn 0.4634 0.4228 -0.7787
vn 0.3210 0.8484 -0.4209
vn 0.4452 0.0286 0.8950
vn 0.3547 -0.4685 0.8091
vn 0.3542 0.4672 -0.8101
vt 0.450698 0.469399
vt 0.465109 0.459350
vt 0.462085 0.451422
vt 0.444310 0.509081
vt 0.457830 0.475390
vt 0.460217 0.518787
vt 0.453274 0.533073
vt 0.448801 0.533440
vt 0.466296 0.477494
vt 0.466821 0.519340
vt 0.475190 0.478828
vt 0.471969 0.458267
vt 0.455555 0.505819
vt 0.463744 0.474513
vt 0.461140 0.523737
vt 0.472025 0.513335
vt 0.478740 0.483780
vt 0.476760 0.468619
vt 0.460431 0.508116
vt 0.471021 0.480473
vt 0.466977 0.528377
vt 0.479224 0.516952
vt 0.486345 0.483078
vt 0.483669 0.465964
vt 0.469191 0.505485
vt 0.476695 0.479388
vt 0.474567 0.520358
vt 0.484476 0.511821
vt 0.490171 0.487443
vt 0.488580 0.474988
vt 0.474230 0.507443
vt 0.483766 0.484651
vt 0.480467 0.524122
vt 0.491486 0.514886
vt 0.497537 0.487136
vt 0.495276 0.473157
vt 0.482613 0.505249
vt 0.489469 0.483994
vt 0.487797 0.517301
vt 0.496573 0.510583
vt 0.501430 0.490890
vt 0.500177 0.480917
vt 0.488069 0.506918
vt 0.496569 0.488691
vt 0.493744 0.520320
vt 0.503406 0.513204
vt 0.508359 0.490846
vt 0.506799 0.479840
vt 0.496060 0.505129
vt 0.502304 0.488409
vt 0.500958 0.514569
vt 0.508355 0.509635
vt 0.512539 0.494129
vt 0.511908 0.486564
vt 0.501512 0.506564
vt 0.509285 0.492532
vt 0.506806 0.516993
vt 0.515148 0.511919
vt 0.519287 0.494361
vt 0.518249 0.485986
vt 0.509509 0.505137
vt 0.515046 0.492552
vt 0.513661 0.512253
vt 0.520218 0.509003
vt 0.523419 0.497133
vt 0.523433 0.491738
vt 0.515062 0.506396
vt 0.522021 0.496189
vt 0.519517 0.514234
vt 0.526775 0.511121
vt 0.529951 0.497523
vt 0.529540 0.491437
vt 0.522661 0.505293
vt 0.527649 0.496336
vt 0.526287 0.510329
vt 0.531875 0.508833
vt 0.534454 0.499973
vt 0.534898 0.496389
vt 0.528093 0.506505
vt 0.534481 0.499496
vt 0.532419 0.510994
vt 0.537807 0.509284
vt 0.539734 0.501454
vt 0.540396 0.499645
vt 0.535755 0.505474
vt 0.543015 0.502751
vt 0.455115 0.493060
vt 0.539001 0.507758
vt 0.542885 0.507740
vt 0.544391 0.503262
vt 0.543896 0.501874
vt 0.542627 0.505008
vt 0.543116 0.506401
s 0
f 1/1/1 5/2/1 3/3/1
f 2/4/2 6/5/2 1/1/2
f 8/6/3 12/7/3 7/8/3
f 4/9/4 10/10/4 8/6/4
f 5/2/5 13/11/5 4/9/5
f 6/5/6 14/12/6 5/2/6
f 9/13/7 15/14/7 6/5/7
f 12/7/8 9/13/8 2/4/8
f 10/10/9 16/15/9 12/7/9
f 13/11/10 17/16/10 10/10/10
f 14/12/11 18/17/11 13/11/11
f 15/14/12 19/18/12 14/12/12
f 11/19/13 20/20/13 15/14/13
f 16/15/14 11/19/14 9/13/14
f 17/16/15 25/21/15 16/15/15
f 18/17/16 22/22/16 17/16/16
f 19/18/17 23/23/17 18/17/17
f 20/20/18 26/24/18 19/18/18
f 21/25/19 27/26/19 20/20/19
f 25/21/20 21/25/20 11/19/20
f 22/22/21 28/27/21 25/21/21
f 23/23/22 31/28/22 22/22/22
f 26/24/23 32/29/23 23/23/23
f 27/26/24 33/30/24 26/24/24
f 24/31/25 29/32/25 27/26/25
f 28/27/26 24/31/26 21/25/26
f 31/28/27 35/33/27 28/27/27
f 32/29/28 36/34/28 31/28/28
f 33/30/29 37/35/29 32/29/29
f 29/32/30 38/36/30 33/30/30
f 30/37/31 34/38/31 29/32/31
f 35/33/32 30/37/32 24/31/32
f 36/34/33 40/39/33 35/33/33
f 37/35/34 44/40/34 36/34/34
f 38/36/35 45/41/35 37/35/35
f 34/38/36 41/42/36 38/36/36
f 39/43/37 42/44/37 34/38/37
f 40/39/38 39/43/38 30/37/38
f 44/40/39 49/45/39 40/39/39
f 45/41/40 50/46/40 44/40/40
f 41/42/41 46/47/41 45/41/41
f 42/44/42 51/48/42 41/42/42
f 43/49/43 47/50/43 42/44/43
f 49/45/44 43/49/44 39/43/44
f 50/46/45 54/51/45 49/45/45
f 46/47/46 52/52/46 50/46/46
f 51/48/47 55/53/47 46/47/47
f 47/50/48 56/54/48 51/48/48
f 48/55/49 53/56/49 47/50/49
f 54/51/50 48/55/50 43/49/50
f 52/52/51 59/57/51 54/51/51
f 55/53/52 60/58/52 52/52/52
f 56/54/53 61/59/53 55/53/53
f 53/56/54 62/60/54 56/54/54
f 57/61/55 58/62/55 53/56/55
f 59/57/56 57/61/56 48/55/56
f 60/58/57 64/63/57 59/57/57
f 61/59/58 66/64/58 60/58/58
f 62/60/59 65/65/59 61/59/59
f 58/62/60 67/66/60 62/60/60
f 63/67/61 68/68/61 58/62/61
f 64/63/62 63/67/62 57/61/62
f 66/64/63 70/69/63 64/63/63
f 65/65/64 75/70/64 66/64/64
f 67/66/65 71/71/65 65/65/65
f 68/68/66 72/72/66 67/66/66
f 69/73/67 73/74/67 68/68/67
f 70/69/68 69/73/68 63/67/68
f 75/70/69 76/75/69 70/69/69
f 71/71/70 77/76/70 75/70/70
f 72/72/71 78/77/71 71/71/71
f 73/74/72 79/78/72 72/72/72
f 74/79/73 80/80/73 73/74/73
f 76/75/74 74/79/74 69/73/74
f 77/76/75 84/81/75 76/75/75
f 78/77/76 85/82/76 77/76/76
f 79/78/77 86/83/77 78/77/77
f 80/80/78 87/84/78 79/78/78
f 81/85/79 91/86/79 80/80/79
f 1/1/80 3/3/80 82/87/80
f 2/4/80 1/1/80 82/87/80
f 7/8/80 2/4/80 82/87/80
f 84/81/81 81/85/81 74/79/81
f 85/82/82 92/88/82 84/81/82
f 86/83/83 88/89/83 85/82/83
f 87/84/84 89/90/84 86/83/84
f 91/86/85 90/91/85 87/84/85
f 3/3/80 4/9/80 82/87/80
f 8/6/80 7/8/80 82/87/80
f 4/9/80 8/6/80 82/87/80
f 7/8/86 12/7/86 2/4/86
f 92/88/87 83/92/87 81/85/87
f 88/89/88 93/93/88 92/88/88
f 5/2/89 4/9/89 3/3/89
f 88/89/90 89/90/90 93/93/90
f 89/90/91 83/92/91 93/93/91
f 89/90/91 90/91/91 83/92/91
f 90/91/91 91/86/91 83/92/91
f 1/1/92 6/5/92 5/2/92
f 2/4/93 9/13/93 6/5/93
f 8/6/94 10/10/94 12/7/94
f 4/9/95 13/11/95 10/10/95
f 5/2/96 14/12/96 13/11/96
f 6/5/97 15/14/97 14/12/97
f 9/13/98 11/19/98 15/14/98
f 12/7/99 16/15/99 9/13/99
f 10/10/100 17/16/100 16/15/100
f 13/11/101 18/17/101 17/16/101
f 14/12/102 19/18/102 18/17/102
f 15/14/103 20/20/103 19/18/103
f 11/19/104 21/25/104 20/20/104
f 16/15/105 25/21/105 11/19/105
f 17/16/106 22/22/106 25/21/106
f 18/17/107 23/23/107 22/22/107
f 19/18/108 26/24/108 23/23/108
f 20/20/109 27/26/109 26/24/109
f 21/25/110 24/31/110 27/26/110
f 25/21/111 28/27/111 21/25/111
f 22/22/112 31/28/112 28/27/112
f 23/23/113 32/29/113 31/28/113
f 26/24/114 33/30/114 32/29/114
f 27/26/115 29/32/115 33/30/115
f 24/31/116 30/37/116 29/32/116
f 28/27/117 35/33/117 24/31/117
f 31/28/118 36/34/118 35/33/118
f 32/29/119 37/35/119 36/34/119
f 33/30/120 38/36/120 37/35/120
f 29/32/121 34/38/121 38/36/121
f 30/37/122 39/43/122 34/38/122
f 35/33/123 40/39/123 30/37/123
f 36/34/124 44/40/124 40/39/124
f 37/35/125 45/41/125 44/40/125
f 38/36/126 41/42/126 45/41/126
f 34/38/127 42/44/127 41/42/127
f 39/43/128 43/49/128 42/44/128
f 40/39/129 49/45/129 39/43/129
f 44/40/130 50/46/130 49/45/130
f 45/41/131 46/47/131 50/46/131
f 41/42/132 51/48/132 46/47/132
f 42/44/133 47/50/133 51/48/133
f 43/49/134 48/55/134 47/50/134
f 49/45/135 54/51/135 43/49/135
f 50/46/136 52/52/136 54/51/136
f 46/47/137 55/53/137 52/52/137
f 51/48/138 56/54/138 55/53/138
f 47/50/139 53/56/139 56/54/139
f 48/55/140 57/61/140 53/56/140
f 54/51/141 59/57/141 48/55/141
f 52/52/142 60/58/142 59/57/142
f 55/53/143 61/59/143 60/58/143
f 56/54/144 62/60/144 61/59/144
f 53/56/145 58/62/145 62/60/145
f 57/61/146 63/67/146 58/62/146
f 59/57/147 64/63/147 57/61/147
f 60/58/148 66/64/148 64/63/148
f 61/59/149 65/65/149 66/64/149
f 62/60/150 67/66/150 65/65/150
f 58/62/151 68/68/151 67/66/151
f 63/67/152 69/73/152 68/68/152
f 64/63/153 70/69/153 63/67/153
f 66/64/154 75/70/154 70/69/154
f 65/65/155 71/71/155 75/70/155
f 67/66/156 72/72/156 71/71/156
f 68/68/157 73/74/157 72/72/157
f 69/73/158 74/79/158 73/74/158
f 70/69/159 76/75/159 69/73/159
f 75/70/160 77/76/160 76/75/160
f 71/71/161 78/77/161 77/76/161
f 72/72/162 79/78/162 78/77/162
f 73/74/163 80/80/163 79/78/163
f 74/79/164 81/85/164 80/80/164
f 76/75/165 84/81/165 74/79/165
f 77/76/166 85/82/166 84/81/166
f 78/77/167 86/83/167 85/82/167
f 79/78/168 87/84/168 86/83/168
f 80/80/169 91/86/169 87/84/169
f 81/85/170 83/92/170 91/86/170
f 84/81/171 92/88/171 81/85/171
f 85/82/172 88/89/172 92/88/172
f 86/83/173 89/90/173 88/89/173
f 87/84/174 90/91/174 89/90/174
f 92/88/175 93/93/175 83/92/175
