# Blender 4.0.2
# www.blender.org
o Gear
v -0.186006 -0.436226 0.143423
v -0.269021 -0.391854 0.143423
v -0.341783 -0.332139 0.143423
v -0.401498 -0.259376 0.143423
v -0.278158 -0.658700 0.143423
v -0.402804 -0.592075 0.143423
v -0.512058 -0.502413 0.143423
v -0.601720 -0.393160 0.143423
v -0.402804 -0.592075 0.143423
v -0.512058 -0.502413 0.143423
v -0.601720 -0.393160 0.143423
v -0.517051 -0.675348 0.143423
v -0.606881 -0.597237 0.143423
v -0.684992 -0.507407 0.143423
v -0.186006 -0.436226 -0.144965
v -0.269021 -0.391854 -0.144965
v -0.341783 -0.332139 -0.144965
v -0.401498 -0.259376 -0.144965
v -0.278158 -0.658700 -0.144965
v -0.402804 -0.592075 -0.144965
v -0.512058 -0.502413 -0.144965
v -0.601720 -0.393160 -0.144965
v -0.402804 -0.592075 -0.144965
v -0.512058 -0.502413 -0.144965
v -0.601720 -0.393160 -0.144965
v -0.517051 -0.675348 -0.144965
v -0.606881 -0.597237 -0.144965
v -0.684992 -0.507407 -0.144965
v -0.445870 -0.176362 0.143423
v -0.473195 -0.086286 0.143423
v -0.482421 0.007390 0.143423
v -0.473195 0.101066 0.143423
v -0.668344 -0.268514 0.143423
v -0.709372 -0.133264 0.143423
v -0.723225 0.007390 0.143423
v -0.709372 0.148045 0.143423
v -0.709372 -0.133264 0.143423
v -0.723225 0.007390 0.143423
v -0.709372 0.148045 0.143423
v -0.849039 -0.111362 0.143423
v -0.857326 0.007390 0.143423
v -0.849039 0.126142 0.143423
v -0.445870 -0.176362 -0.144965
v -0.473195 -0.086286 -0.144965
v -0.482421 0.007390 -0.144965
v -0.473195 0.101066 -0.144965
v -0.668344 -0.268514 -0.144965
v -0.709372 -0.133264 -0.144965
v -0.723225 0.007390 -0.144965
v -0.709372 0.148045 -0.144965
v -0.709372 -0.133264 -0.144965
v -0.723225 0.007390 -0.144965
v -0.709372 0.148045 -0.144965
v -0.849039 -0.111362 -0.144965
v -0.857326 0.007390 -0.144965
v -0.849039 0.126142 -0.144965
v -0.460197 0.151779 0.143423
v -0.689856 0.224190 0.143423
v -0.460197 0.151779 -0.144965
v -0.689856 0.224190 -0.144965
v -0.146643 0.465333 0.143423
v -0.095930 0.478330 0.143423
v -0.002254 0.487557 0.143423
v 0.091422 0.478330 0.143423
v -0.219054 0.694992 0.143423
v -0.142909 0.714508 0.143423
v -0.002254 0.728361 0.143423
v 0.138400 0.714508 0.143423
v -0.142909 0.714508 0.143423
v -0.002254 0.728361 0.143423
v 0.138400 0.714508 0.143423
v -0.121006 0.854175 0.143423
v -0.002254 0.862461 0.143423
v 0.116498 0.854175 0.143423
v -0.146643 0.465333 -0.144965
v -0.095930 0.478330 -0.144965
v -0.002254 0.487557 -0.144965
v 0.091421 0.478330 -0.144965
v -0.219054 0.694992 -0.144965
v -0.142909 0.714508 -0.144965
v -0.002254 0.728361 -0.144965
v 0.138400 0.714508 -0.144965
v -0.142909 0.714508 -0.144965
v -0.002254 0.728361 -0.144965
v 0.138400 0.714508 -0.144965
v -0.121006 0.854175 -0.144965
v -0.002254 0.862461 -0.144965
v 0.116498 0.854175 -0.144965
v 0.181498 0.451006 0.143423
v 0.264512 0.406634 0.143423
v 0.337275 0.346919 0.143423
v 0.396990 0.274156 0.143423
v 0.273649 0.673480 0.143423
v 0.398296 0.606855 0.143423
v 0.507549 0.517193 0.143423
v 0.597211 0.407940 0.143423
v 0.398296 0.606855 0.143423
v 0.507549 0.517193 0.143423
v 0.597211 0.407940 0.143423
v 0.512543 0.690128 0.143423
v 0.602373 0.612017 0.143423
v 0.680484 0.522187 0.143423
v 0.181497 0.451006 -0.144965
v 0.264512 0.406634 -0.144965
v 0.337275 0.346919 -0.144965
v 0.396990 0.274156 -0.144965
v 0.273649 0.673480 -0.144965
v 0.398296 0.606855 -0.144965
v 0.507549 0.517193 -0.144965
v 0.597211 0.407940 -0.144965
v 0.398296 0.606855 -0.144965
v 0.507549 0.517193 -0.144965
v 0.597211 0.407940 -0.144965
v 0.512543 0.690128 -0.144965
v 0.602372 0.612017 -0.144965
v 0.680484 0.522187 -0.144965
v 0.441362 0.191142 0.143423
v 0.468686 0.101066 0.143423
v 0.477912 0.007390 0.143423
v 0.468686 -0.086286 0.143423
v 0.663836 0.283294 0.143423
v 0.704863 0.148044 0.143423
v 0.718717 0.007390 0.143423
v 0.704863 -0.133264 0.143423
v 0.704863 0.148044 0.143423
v 0.718717 0.007390 0.143423
v 0.704863 -0.133264 0.143423
v 0.844531 0.126142 0.143423
v 0.852817 0.007390 0.143423
v 0.844531 -0.111362 0.143423
v 0.441362 0.191142 -0.144965
v 0.468686 0.101066 -0.144965
v 0.477912 0.007390 -0.144965
v 0.468686 -0.086286 -0.144965
v 0.663836 0.283294 -0.144965
v 0.704863 0.148044 -0.144965
v 0.718716 0.007390 -0.144965
v 0.704863 -0.133264 -0.144965
v 0.704863 0.148044 -0.144965
v 0.718716 0.007390 -0.144965
v 0.704863 -0.133264 -0.144965
v 0.844531 0.126142 -0.144965
v 0.852817 0.007390 -0.144965
v 0.844531 -0.111362 -0.144965
v 0.455689 -0.136999 0.143423
v 0.685348 -0.209410 0.143423
v 0.455689 -0.136999 -0.144965
v 0.685348 -0.209410 -0.144965
v 0.142135 -0.450553 0.143423
v 0.091422 -0.463550 0.143423
v -0.002254 -0.472776 0.143423
v -0.095930 -0.463550 0.143423
v 0.214546 -0.680212 0.143423
v 0.138400 -0.699727 0.143423
v -0.002254 -0.713581 0.143423
v -0.142909 -0.699727 0.143423
v 0.138400 -0.699727 0.143423
v -0.002254 -0.713581 0.143423
v -0.142909 -0.699727 0.143423
v 0.116498 -0.839395 0.143423
v -0.002254 -0.847681 0.143423
v -0.121006 -0.839395 0.143423
v 0.142134 -0.450553 -0.144965
v 0.091421 -0.463550 -0.144965
v -0.002254 -0.472776 -0.144965
v -0.095930 -0.463550 -0.144965
v 0.214546 -0.680212 -0.144965
v 0.138400 -0.699727 -0.144965
v -0.002254 -0.713581 -0.144965
v -0.142909 -0.699727 -0.144965
v 0.138400 -0.699727 -0.144965
v -0.002254 -0.713581 -0.144965
v -0.142909 -0.699727 -0.144965
v 0.116498 -0.839395 -0.144965
v -0.002254 -0.847681 -0.144965
v -0.121006 -0.839395 -0.144965
v -0.721868 0.348414 0.654094
v -0.699506 0.486714 0.736075
v -0.472232 0.713988 0.736075
v -0.333932 0.736350 0.654094
v -0.224738 0.687170 0.542107
v -0.175558 0.577976 0.430119
v -0.199569 0.438026 0.348138
v -0.290339 0.304820 0.318132
v -0.423544 0.214051 0.348138
v -0.563494 0.190039 0.430119
v -0.672688 0.239220 0.542107
v -0.605351 0.395043 0.604676
v -0.380561 0.619833 0.604676
v -0.288792 0.528063 0.474894
v -0.355301 0.369783 0.410003
v -0.513581 0.303273 0.474894
v -0.649771 0.276317 0.756055
v -0.627409 0.414617 0.838036
v -0.400135 0.641891 0.838036
v -0.261835 0.664253 0.756055
v -0.152641 0.615073 0.644067
v -0.103461 0.505879 0.532080
v -0.127472 0.365929 0.450099
v -0.218242 0.232723 0.420092
v -0.351447 0.141954 0.450099
v -0.491397 0.117942 0.532080
v -0.600591 0.167122 0.644067
v -0.533254 0.322946 0.706637
v -0.308464 0.547735 0.706637
v -0.216694 0.455966 0.576854
v -0.283204 0.297686 0.511963
v -0.441484 0.231176 0.576854
v 0.673624 -0.271206 -0.770806
v 0.651262 -0.409506 -0.852786
v 0.423988 -0.636781 -0.852787
v 0.285688 -0.659142 -0.770806
v 0.176493 -0.609962 -0.658818
v 0.127313 -0.500768 -0.546830
v 0.151325 -0.360819 -0.464850
v 0.242094 -0.227613 -0.434843
v 0.375300 -0.136843 -0.464850
v 0.515250 -0.112832 -0.546830
v 0.624444 -0.162012 -0.658818
v 0.557106 -0.317835 -0.721387
v 0.332317 -0.542625 -0.721387
v 0.240547 -0.450855 -0.591605
v 0.307057 -0.292575 -0.526714
v 0.465337 -0.226066 -0.591605
v 0.745721 -0.343303 -0.668845
v 0.723359 -0.481603 -0.750826
v 0.496085 -0.708878 -0.750826
v 0.357785 -0.731239 -0.668845
v 0.248591 -0.682059 -0.556857
v 0.199410 -0.572865 -0.444870
v 0.223422 -0.432916 -0.362889
v 0.314191 -0.299710 -0.332882
v 0.447397 -0.208940 -0.362889
v 0.587347 -0.184929 -0.444870
v 0.696541 -0.234109 -0.556857
v 0.629204 -0.389932 -0.619427
v 0.404414 -0.614722 -0.619427
v 0.312644 -0.522952 -0.489644
v 0.379154 -0.364672 -0.424753
v 0.537434 -0.298163 -0.489644
v -0.322156 0.175471 0.249166
v 0.112745 -0.259430 -0.365878
v 0.184842 -0.331527 -0.263917
v -0.250059 0.103374 0.351127
v 0.249374 -0.234892 -0.241216
v -0.153424 0.167905 0.328426
v 0.273912 -0.098263 -0.365877
v -0.160990 0.336638 0.249166
v -0.088892 0.264541 0.351127
v 0.346009 -0.170361 -0.263917
v -0.225521 0.240003 0.226465
v 0.177277 -0.162795 -0.343177
vn -0.0000 -0.0000 1.0000
vn -0.0000 1.0000 -0.0000
vn -0.0000 -0.0000 -1.0000
vn -0.4714 -0.8819 -0.0000
vn 0.5890 -0.8081 -0.0000
vn -0.6562 -0.7546 -0.0000
vn -0.7546 -0.6562 -0.0000
vn -0.8081 0.5890 -0.0000
vn -0.9569 -0.2903 -0.0000
vn -0.1549 -0.9879 -0.0000
vn -0.9976 -0.0696 -0.0000
vn -0.9976 0.0696 -0.0000
vn -0.1549 0.9879 -0.0000
vn -0.8819 -0.4714 -0.0000
vn -0.9687 0.2483 -0.0000
vn -0.2483 0.9687 -0.0000
vn -0.9879 0.1549 -0.0000
vn -0.0696 0.9976 -0.0000
vn 0.0696 0.9976 -0.0000
vn 0.9879 0.1549 -0.0000
vn 0.4714 0.8819 -0.0000
vn -0.5890 0.8081 -0.0000
vn 0.6562 0.7546 -0.0000
vn 0.7546 0.6562 -0.0000
vn 0.8081 -0.5890 -0.0000
vn 0.2903 0.9569 -0.0000
vn 0.9569 0.2903 -0.0000
vn 0.1549 0.9879 -0.0000
vn 0.9976 0.0696 -0.0000
vn 0.9976 -0.0696 -0.0000
vn 0.1549 -0.9879 -0.0000
vn 0.8819 0.4714 -0.0000
vn 0.9687 -0.2483 -0.0000
vn 0.2483 -0.9687 -0.0000
vn 0.9879 -0.1549 -0.0000
vn 0.0696 -0.9976 -0.0000
vn -0.0696 -0.9976 -0.0000
vn -0.9879 -0.1549 -0.0000
vn -0.2903 -0.9569 -0.0000
vn -0.9537 -0.3007 -0.0000
vn 0.0980 -0.9952 -0.0000
vn -0.0980 -0.9952 -0.0000
vn -0.6344 -0.7730 -0.0000
vn -0.7730 -0.6344 -0.0000
vn -0.9952 -0.0980 -0.0000
vn -0.9952 0.0980 -0.0000
vn -0.3007 -0.9537 -0.0000
vn 0.9537 0.3007 -0.0000
vn -0.0980 0.9952 -0.0000
vn 0.0980 0.9952 -0.0000
vn 0.6344 0.7730 -0.0000
vn 0.7730 0.6344 -0.0000
vn 0.9952 0.0980 -0.0000
vn 0.9952 -0.0980 -0.0000
vn 0.3007 0.9537 -0.0000
vn -0.7118 -0.7023 0.0067
vn 0.8124 0.5536 -0.1830
vn 0.7023 0.7118 0.0067
vn 0.8536 0.1464 -0.5000
vn -0.7071 -0.7071 -0.0000
vn -0.7866 0.0795 0.6124
vn -0.0795 0.7866 0.6124
vn -0.1464 -0.8536 -0.5000
vn -0.8550 -0.1551 0.4949
vn 0.7071 0.7071 -0.0000
vn -0.5536 -0.8124 -0.1830
vn 0.1551 0.8550 0.4949
vn -0.8124 -0.5536 0.1830
vn 0.5536 0.8124 0.1830
vn 0.7118 0.7023 -0.0067
vn -0.7023 -0.7118 -0.0067
vn -0.8536 -0.1464 0.5000
vn -0.5228 -0.8252 -0.2139
vn 0.7866 -0.0795 -0.6124
vn 0.5000 -0.5000 0.7071
vn 0.0795 -0.7866 -0.6124
vn 0.1464 0.8536 0.5000
vn 0.8550 0.1551 -0.4949
vn -0.1551 -0.8550 -0.4949
vn -0.5000 0.5000 -0.7071
vn 0.8252 0.5228 -0.2139
vn 0.5228 0.8252 0.2139
vn -0.8252 -0.5228 0.2139
vt 0.000000 0.000000
s 0
f 1/1/1 6/1/1 5/1/1
f 6/1/1 3/1/1 7/1/1
f 3/1/1 8/1/1 7/1/1
f 9/1/2 7/1/2 10/1/2
f 10/1/2 8/1/2 11/1/2
f 12/1/1 10/1/1 13/1/1
f 10/1/1 14/1/1 13/1/1
f 15/1/3 20/1/3 16/1/3
f 20/1/3 17/1/3 16/1/3
f 21/1/3 18/1/3 17/1/3
f 20/1/2 24/1/2 21/1/2
f 21/1/2 25/1/2 22/1/2
f 26/1/3 24/1/3 23/1/3
f 24/1/3 28/1/3 25/1/3
f 5/1/4 20/1/4 19/1/4
f 20/1/2 9/1/2 23/1/2
f 9/1/5 26/1/5 23/1/5
f 12/1/6 27/1/6 26/1/6
f 27/1/7 14/1/7 28/1/7
f 14/1/8 25/1/8 28/1/8
f 25/1/2 8/1/2 22/1/2
f 29/1/1 34/1/1 33/1/1
f 34/1/1 31/1/1 35/1/1
f 35/1/1 32/1/1 36/1/1
f 37/1/2 35/1/2 38/1/2
f 38/1/2 36/1/2 39/1/2
f 40/1/1 38/1/1 41/1/1
f 38/1/1 42/1/1 41/1/1
f 43/1/3 48/1/3 44/1/3
f 48/1/3 45/1/3 44/1/3
f 49/1/3 46/1/3 45/1/3
f 48/1/2 52/1/2 49/1/2
f 49/1/2 53/1/2 50/1/2
f 54/1/3 52/1/3 51/1/3
f 52/1/3 56/1/3 53/1/3
f 33/1/9 48/1/9 47/1/9
f 48/1/2 37/1/2 51/1/2
f 51/1/10 40/1/10 54/1/10
f 54/1/11 41/1/11 55/1/11
f 41/1/12 56/1/12 55/1/12
f 56/1/13 39/1/13 53/1/13
f 53/1/2 36/1/2 50/1/2
f 4/1/1 33/1/1 8/1/1
f 33/1/14 22/1/14 8/1/14
f 47/1/3 18/1/3 22/1/3
f 57/1/1 36/1/1 32/1/1
f 58/1/15 50/1/15 36/1/15
f 50/1/3 59/1/3 46/1/3
f 65/1/1 62/1/1 66/1/1
f 62/1/1 67/1/1 66/1/1
f 63/1/1 68/1/1 67/1/1
f 69/1/2 67/1/2 70/1/2
f 70/1/2 68/1/2 71/1/2
f 72/1/1 70/1/1 73/1/1
f 70/1/1 74/1/1 73/1/1
f 79/1/3 76/1/3 75/1/3
f 76/1/3 81/1/3 77/1/3
f 81/1/3 78/1/3 77/1/3
f 80/1/2 84/1/2 81/1/2
f 81/1/2 85/1/2 82/1/2
f 86/1/3 84/1/3 83/1/3
f 84/1/3 88/1/3 85/1/3
f 65/1/16 80/1/16 79/1/16
f 80/1/2 69/1/2 83/1/2
f 69/1/17 86/1/17 83/1/17
f 72/1/18 87/1/18 86/1/18
f 87/1/19 74/1/19 88/1/19
f 88/1/20 71/1/20 85/1/20
f 85/1/2 68/1/2 82/1/2
f 89/1/1 94/1/1 93/1/1
f 94/1/1 91/1/1 95/1/1
f 91/1/1 96/1/1 95/1/1
f 97/1/2 95/1/2 98/1/2
f 98/1/2 96/1/2 99/1/2
f 100/1/1 98/1/1 101/1/1
f 98/1/1 102/1/1 101/1/1
f 103/1/3 108/1/3 104/1/3
f 108/1/3 105/1/3 104/1/3
f 105/1/3 110/1/3 106/1/3
f 108/1/2 112/1/2 109/1/2
f 109/1/2 113/1/2 110/1/2
f 114/1/3 112/1/3 111/1/3
f 112/1/3 116/1/3 113/1/3
f 107/1/21 94/1/21 108/1/21
f 108/1/2 97/1/2 111/1/2
f 111/1/22 100/1/22 114/1/22
f 114/1/23 101/1/23 115/1/23
f 101/1/24 116/1/24 115/1/24
f 102/1/25 113/1/25 116/1/25
f 113/1/2 96/1/2 110/1/2
f 64/1/1 93/1/1 68/1/1
f 93/1/26 82/1/26 68/1/26
f 107/1/3 78/1/3 82/1/3
f 117/1/1 122/1/1 121/1/1
f 118/1/1 123/1/1 122/1/1
f 119/1/1 124/1/1 123/1/1
f 125/1/2 123/1/2 126/1/2
f 126/1/2 124/1/2 127/1/2
f 128/1/1 126/1/1 129/1/1
f 126/1/1 130/1/1 129/1/1
f 135/1/3 132/1/3 131/1/3
f 132/1/3 137/1/3 133/1/3
f 133/1/3 138/1/3 134/1/3
f 136/1/2 140/1/2 137/1/2
f 137/1/2 141/1/2 138/1/2
f 142/1/3 140/1/3 139/1/3
f 140/1/3 144/1/3 141/1/3
f 121/1/27 136/1/27 135/1/27
f 136/1/2 125/1/2 139/1/2
f 139/1/28 128/1/28 142/1/28
f 128/1/29 143/1/29 142/1/29
f 143/1/30 130/1/30 144/1/30
f 130/1/31 141/1/31 144/1/31
f 141/1/2 124/1/2 138/1/2
f 117/1/1 96/1/1 92/1/1
f 121/1/32 110/1/32 96/1/32
f 135/1/3 106/1/3 110/1/3
f 145/1/1 124/1/1 120/1/1
f 146/1/33 138/1/33 124/1/33
f 138/1/3 147/1/3 134/1/3
f 153/1/1 150/1/1 154/1/1
f 154/1/1 151/1/1 155/1/1
f 151/1/1 156/1/1 155/1/1
f 157/1/2 155/1/2 158/1/2
f 158/1/2 156/1/2 159/1/2
f 160/1/1 158/1/1 161/1/1
f 158/1/1 162/1/1 161/1/1
f 167/1/3 164/1/3 163/1/3
f 168/1/3 165/1/3 164/1/3
f 169/1/3 166/1/3 165/1/3
f 168/1/2 172/1/2 169/1/2
f 169/1/2 173/1/2 170/1/2
f 174/1/3 172/1/3 171/1/3
f 172/1/3 176/1/3 173/1/3
f 153/1/34 168/1/34 167/1/34
f 168/1/2 157/1/2 171/1/2
f 171/1/35 160/1/35 174/1/35
f 174/1/36 161/1/36 175/1/36
f 175/1/37 162/1/37 176/1/37
f 162/1/38 173/1/38 176/1/38
f 173/1/2 156/1/2 170/1/2
f 1/1/1 156/1/1 152/1/1
f 5/1/39 170/1/39 156/1/39
f 19/1/3 166/1/3 170/1/3
f 79/1/40 61/1/40 65/1/40
f 61/1/34 76/1/34 62/1/34
f 62/1/41 77/1/41 63/1/41
f 64/1/42 77/1/42 78/1/42
f 103/1/39 64/1/39 78/1/39
f 89/1/4 104/1/4 90/1/4
f 90/1/43 105/1/43 91/1/43
f 106/1/44 91/1/44 105/1/44
f 131/1/14 92/1/14 106/1/14
f 117/1/9 132/1/9 118/1/9
f 119/1/45 132/1/45 133/1/45
f 120/1/46 133/1/46 134/1/46
f 145/1/15 134/1/15 147/1/15
f 145/1/47 148/1/47 146/1/47
f 153/1/48 163/1/48 149/1/48
f 149/1/16 164/1/16 150/1/16
f 150/1/49 165/1/49 151/1/49
f 152/1/50 165/1/50 166/1/50
f 166/1/26 1/1/26 152/1/26
f 2/1/21 15/1/21 16/1/21
f 3/1/51 16/1/51 17/1/51
f 18/1/52 3/1/52 17/1/52
f 29/1/32 18/1/32 43/1/32
f 29/1/27 44/1/27 30/1/27
f 30/1/53 45/1/53 31/1/53
f 46/1/54 31/1/54 45/1/54
f 57/1/33 46/1/33 59/1/33
f 58/1/55 59/1/55 60/1/55
f 189/1/56 195/1/56 179/1/56
f 181/1/57 198/1/57 182/1/57
f 194/1/58 188/1/58 178/1/58
f 182/1/59 199/1/59 183/1/59
f 206/1/60 189/1/60 190/1/60
f 191/1/61 206/1/61 190/1/61
f 192/1/62 207/1/62 191/1/62
f 186/1/63 201/1/63 202/1/63
f 177/1/64 194/1/64 178/1/64
f 188/1/65 208/1/65 192/1/65
f 187/1/66 202/1/66 203/1/66
f 180/1/67 195/1/67 196/1/67
f 187/1/68 193/1/68 177/1/68
f 180/1/69 197/1/69 181/1/69
f 221/1/70 227/1/70 211/1/70
f 213/1/68 230/1/68 214/1/68
f 226/1/71 220/1/71 210/1/71
f 215/1/72 230/1/72 231/1/72
f 238/1/65 221/1/65 222/1/65
f 244/1/73 185/1/73 241/1/73
f 223/1/74 238/1/74 222/1/74
f 244/1/75 200/1/75 201/1/75
f 240/1/76 223/1/76 224/1/76
f 218/1/77 233/1/77 234/1/77
f 210/1/78 225/1/78 226/1/78
f 220/1/60 240/1/60 224/1/60
f 218/1/69 235/1/69 219/1/69
f 212/1/79 227/1/79 228/1/79
f 219/1/57 225/1/57 209/1/57
f 213/1/66 228/1/66 229/1/66
f 248/1/80 184/1/80 183/1/80
f 249/1/81 183/1/81 199/1/81
f 241/1/80 184/1/80 251/1/80
f 249/1/75 200/1/75 246/1/75
f 232/1/75 250/1/75 245/1/75
f 245/1/75 249/1/75 246/1/75
f 216/1/80 242/1/80 252/1/80
f 242/1/80 251/1/80 252/1/80
f 217/1/82 250/1/82 233/1/82
f 247/1/65 249/1/65 250/1/65
f 216/1/80 247/1/80 217/1/80
f 247/1/80 251/1/80 248/1/80
f 232/1/75 243/1/75 231/1/75
f 245/1/75 244/1/75 243/1/75
f 231/1/83 242/1/83 215/1/83
f 243/1/60 241/1/60 242/1/60
f 188/1/80 177/1/80 178/1/80
f 187/1/80 192/1/80 186/1/80
f 185/1/80 192/1/80 191/1/80
f 184/1/80 191/1/80 183/1/80
f 183/1/80 190/1/80 182/1/80
f 181/1/80 190/1/80 189/1/80
f 180/1/80 189/1/80 179/1/80
f 216/1/80 223/1/80 215/1/80
f 224/1/80 217/1/80 218/1/80
f 219/1/80 224/1/80 218/1/80
f 220/1/80 209/1/80 210/1/80
f 215/1/80 222/1/80 214/1/80
f 222/1/80 213/1/80 214/1/80
f 212/1/80 221/1/80 211/1/80
f 232/1/75 239/1/75 233/1/75
f 238/1/75 231/1/75 230/1/75
f 229/1/75 238/1/75 230/1/75
f 237/1/75 228/1/75 227/1/75
f 233/1/75 240/1/75 234/1/75
f 240/1/75 235/1/75 234/1/75
f 225/1/75 236/1/75 226/1/75
f 200/1/75 207/1/75 201/1/75
f 201/1/75 208/1/75 202/1/75
f 208/1/75 203/1/75 202/1/75
f 193/1/75 204/1/75 194/1/75
f 206/1/75 199/1/75 198/1/75
f 197/1/75 206/1/75 198/1/75
f 205/1/75 196/1/75 195/1/75
f 1/1/1 2/1/1 6/1/1
f 6/1/1 2/1/1 3/1/1
f 3/1/1 4/1/1 8/1/1
f 9/1/2 6/1/2 7/1/2
f 10/1/2 7/1/2 8/1/2
f 12/1/1 9/1/1 10/1/1
f 10/1/1 11/1/1 14/1/1
f 15/1/3 19/1/3 20/1/3
f 20/1/3 21/1/3 17/1/3
f 21/1/3 22/1/3 18/1/3
f 20/1/2 23/1/2 24/1/2
f 21/1/2 24/1/2 25/1/2
f 26/1/3 27/1/3 24/1/3
f 24/1/3 27/1/3 28/1/3
f 5/1/4 6/1/4 20/1/4
f 20/1/2 6/1/2 9/1/2
f 9/1/5 12/1/5 26/1/5
f 12/1/6 13/1/6 27/1/6
f 27/1/7 13/1/7 14/1/7
f 14/1/8 11/1/8 25/1/8
f 25/1/2 11/1/2 8/1/2
f 29/1/1 30/1/1 34/1/1
f 34/1/1 30/1/1 31/1/1
f 35/1/1 31/1/1 32/1/1
f 37/1/2 34/1/2 35/1/2
f 38/1/2 35/1/2 36/1/2
f 40/1/1 37/1/1 38/1/1
f 38/1/1 39/1/1 42/1/1
f 43/1/3 47/1/3 48/1/3
f 48/1/3 49/1/3 45/1/3
f 49/1/3 50/1/3 46/1/3
f 48/1/2 51/1/2 52/1/2
f 49/1/2 52/1/2 53/1/2
f 54/1/3 55/1/3 52/1/3
f 52/1/3 55/1/3 56/1/3
f 33/1/9 34/1/9 48/1/9
f 48/1/2 34/1/2 37/1/2
f 51/1/10 37/1/10 40/1/10
f 54/1/11 40/1/11 41/1/11
f 41/1/12 42/1/12 56/1/12
f 56/1/13 42/1/13 39/1/13
f 53/1/2 39/1/2 36/1/2
f 4/1/1 29/1/1 33/1/1
f 33/1/14 47/1/14 22/1/14
f 47/1/3 43/1/3 18/1/3
f 57/1/1 58/1/1 36/1/1
f 58/1/15 60/1/15 50/1/15
f 50/1/3 60/1/3 59/1/3
f 65/1/1 61/1/1 62/1/1
f 62/1/1 63/1/1 67/1/1
f 63/1/1 64/1/1 68/1/1
f 69/1/2 66/1/2 67/1/2
f 70/1/2 67/1/2 68/1/2
f 72/1/1 69/1/1 70/1/1
f 70/1/1 71/1/1 74/1/1
f 79/1/3 80/1/3 76/1/3
f 76/1/3 80/1/3 81/1/3
f 81/1/3 82/1/3 78/1/3
f 80/1/2 83/1/2 84/1/2
f 81/1/2 84/1/2 85/1/2
f 86/1/3 87/1/3 84/1/3
f 84/1/3 87/1/3 88/1/3
f 65/1/16 66/1/16 80/1/16
f 80/1/2 66/1/2 69/1/2
f 69/1/17 72/1/17 86/1/17
f 72/1/18 73/1/18 87/1/18
f 87/1/19 73/1/19 74/1/19
f 88/1/20 74/1/20 71/1/20
f 85/1/2 71/1/2 68/1/2
f 89/1/1 90/1/1 94/1/1
f 94/1/1 90/1/1 91/1/1
f 91/1/1 92/1/1 96/1/1
f 97/1/2 94/1/2 95/1/2
f 98/1/2 95/1/2 96/1/2
f 100/1/1 97/1/1 98/1/1
f 98/1/1 99/1/1 102/1/1
f 103/1/3 107/1/3 108/1/3
f 108/1/3 109/1/3 105/1/3
f 105/1/3 109/1/3 110/1/3
f 108/1/2 111/1/2 112/1/2
f 109/1/2 112/1/2 113/1/2
f 114/1/3 115/1/3 112/1/3
f 112/1/3 115/1/3 116/1/3
f 107/1/21 93/1/21 94/1/21
f 108/1/2 94/1/2 97/1/2
f 111/1/22 97/1/22 100/1/22
f 114/1/23 100/1/23 101/1/23
f 101/1/24 102/1/24 116/1/24
f 102/1/25 99/1/25 113/1/25
f 113/1/2 99/1/2 96/1/2
f 64/1/1 89/1/1 93/1/1
f 93/1/26 107/1/26 82/1/26
f 107/1/3 103/1/3 78/1/3
f 117/1/1 118/1/1 122/1/1
f 118/1/1 119/1/1 123/1/1
f 119/1/1 120/1/1 124/1/1
f 125/1/2 122/1/2 123/1/2
f 126/1/2 123/1/2 124/1/2
f 128/1/1 125/1/1 126/1/1
f 126/1/1 127/1/1 130/1/1
f 135/1/3 136/1/3 132/1/3
f 132/1/3 136/1/3 137/1/3
f 133/1/3 137/1/3 138/1/3
f 136/1/2 139/1/2 140/1/2
f 137/1/2 140/1/2 141/1/2
f 142/1/3 143/1/3 140/1/3
f 140/1/3 143/1/3 144/1/3
f 121/1/27 122/1/27 136/1/27
f 136/1/2 122/1/2 125/1/2
f 139/1/28 125/1/28 128/1/28
f 128/1/29 129/1/29 143/1/29
f 143/1/30 129/1/30 130/1/30
f 130/1/31 127/1/31 141/1/31
f 141/1/2 127/1/2 124/1/2
f 117/1/1 121/1/1 96/1/1
f 121/1/32 135/1/32 110/1/32
f 135/1/3 131/1/3 106/1/3
f 145/1/1 146/1/1 124/1/1
f 146/1/33 148/1/33 138/1/33
f 138/1/3 148/1/3 147/1/3
f 153/1/1 149/1/1 150/1/1
f 154/1/1 150/1/1 151/1/1
f 151/1/1 152/1/1 156/1/1
f 157/1/2 154/1/2 155/1/2
f 158/1/2 155/1/2 156/1/2
f 160/1/1 157/1/1 158/1/1
f 158/1/1 159/1/1 162/1/1
f 167/1/3 168/1/3 164/1/3
f 168/1/3 169/1/3 165/1/3
f 169/1/3 170/1/3 166/1/3
f 168/1/2 171/1/2 172/1/2
f 169/1/2 172/1/2 173/1/2
f 174/1/3 175/1/3 172/1/3
f 172/1/3 175/1/3 176/1/3
f 153/1/34 154/1/34 168/1/34
f 168/1/2 154/1/2 157/1/2
f 171/1/35 157/1/35 160/1/35
f 174/1/36 160/1/36 161/1/36
f 175/1/37 161/1/37 162/1/37
f 162/1/38 159/1/38 173/1/38
f 173/1/2 159/1/2 156/1/2
f 1/1/1 5/1/1 156/1/1
f 5/1/39 19/1/39 170/1/39
f 19/1/3 15/1/3 166/1/3
f 79/1/40 75/1/40 61/1/40
f 61/1/34 75/1/34 76/1/34
f 62/1/41 76/1/41 77/1/41
f 64/1/42 63/1/42 77/1/42
f 103/1/39 89/1/39 64/1/39
f 89/1/4 103/1/4 104/1/4
f 90/1/43 104/1/43 105/1/43
f 106/1/44 92/1/44 91/1/44
f 131/1/14 117/1/14 92/1/14
f 117/1/9 131/1/9 132/1/9
f 119/1/45 118/1/45 132/1/45
f 120/1/46 119/1/46 133/1/46
f 145/1/15 120/1/15 134/1/15
f 145/1/47 147/1/47 148/1/47
f 153/1/48 167/1/48 163/1/48
f 149/1/16 163/1/16 164/1/16
f 150/1/49 164/1/49 165/1/49
f 152/1/50 151/1/50 165/1/50
f 166/1/26 15/1/26 1/1/26
f 2/1/21 1/1/21 15/1/21
f 3/1/51 2/1/51 16/1/51
f 18/1/52 4/1/52 3/1/52
f 29/1/32 4/1/32 18/1/32
f 29/1/27 43/1/27 44/1/27
f 30/1/53 44/1/53 45/1/53
f 46/1/54 32/1/54 31/1/54
f 57/1/33 32/1/33 46/1/33
f 58/1/55 57/1/55 59/1/55
f 189/1/56 205/1/56 195/1/56
f 181/1/57 197/1/57 198/1/57
f 194/1/58 204/1/58 188/1/58
f 182/1/59 198/1/59 199/1/59
f 206/1/60 205/1/60 189/1/60
f 191/1/61 207/1/61 206/1/61
f 192/1/62 208/1/62 207/1/62
f 186/1/63 185/1/63 201/1/63
f 177/1/64 193/1/64 194/1/64
f 188/1/65 204/1/65 208/1/65
f 187/1/66 186/1/66 202/1/66
f 180/1/67 179/1/67 195/1/67
f 187/1/68 203/1/68 193/1/68
f 180/1/69 196/1/69 197/1/69
f 221/1/70 237/1/70 227/1/70
f 213/1/68 229/1/68 230/1/68
f 226/1/71 236/1/71 220/1/71
f 215/1/72 214/1/72 230/1/72
f 238/1/65 237/1/65 221/1/65
f 244/1/73 201/1/73 185/1/73
f 223/1/74 239/1/74 238/1/74
f 244/1/75 246/1/75 200/1/75
f 240/1/76 239/1/76 223/1/76
f 218/1/77 217/1/77 233/1/77
f 210/1/78 209/1/78 225/1/78
f 220/1/60 236/1/60 240/1/60
f 218/1/69 234/1/69 235/1/69
f 212/1/79 211/1/79 227/1/79
f 219/1/57 235/1/57 225/1/57
f 213/1/66 212/1/66 228/1/66
f 248/1/80 251/1/80 184/1/80
f 249/1/81 248/1/81 183/1/81
f 241/1/80 185/1/80 184/1/80
f 249/1/75 199/1/75 200/1/75
f 232/1/75 233/1/75 250/1/75
f 245/1/75 250/1/75 249/1/75
f 216/1/80 215/1/80 242/1/80
f 242/1/80 241/1/80 251/1/80
f 217/1/82 247/1/82 250/1/82
f 247/1/65 248/1/65 249/1/65
f 216/1/80 252/1/80 247/1/80
f 247/1/80 252/1/80 251/1/80
f 232/1/75 245/1/75 243/1/75
f 245/1/75 246/1/75 244/1/75
f 231/1/83 243/1/83 242/1/83
f 243/1/60 244/1/60 241/1/60
f 188/1/80 187/1/80 177/1/80
f 187/1/80 188/1/80 192/1/80
f 185/1/80 186/1/80 192/1/80
f 184/1/80 185/1/80 191/1/80
f 183/1/80 191/1/80 190/1/80
f 181/1/80 182/1/80 190/1/80
f 180/1/80 181/1/80 189/1/80
f 216/1/80 217/1/80 223/1/80
f 224/1/80 223/1/80 217/1/80
f 219/1/80 220/1/80 224/1/80
f 220/1/80 219/1/80 209/1/80
f 215/1/80 223/1/80 222/1/80
f 222/1/80 221/1/80 213/1/80
f 212/1/80 213/1/80 221/1/80
f 232/1/75 231/1/75 239/1/75
f 238/1/75 239/1/75 231/1/75
f 229/1/75 237/1/75 238/1/75
f 237/1/75 229/1/75 228/1/75
f 233/1/75 239/1/75 240/1/75
f 240/1/75 236/1/75 235/1/75
f 225/1/75 235/1/75 236/1/75
f 200/1/75 199/1/75 207/1/75
f 201/1/75 207/1/75 208/1/75
f 208/1/75 204/1/75 203/1/75
f 193/1/75 203/1/75 204/1/75
f 206/1/75 207/1/75 199/1/75
f 197/1/75 205/1/75 206/1/75
f 205/1/75 197/1/75 196/1/75
