# Blender 4.0.2
# www.blender.org
o Cube.002
v -0.401677 -0.559751 0.148440
v -0.401677 0.115885 0.148440
v -0.401677 -0.559751 -0.148440
v -0.401677 0.115885 -0.148440
v 0.045989 -0.559751 0.148440
v 0.045989 0.115885 0.148440
v 0.045989 -0.559751 -0.148440
v 0.045989 0.115885 -0.148440
v -0.700049 0.115885 0.148440
v -0.700049 0.115885 -0.148440
v 0.344361 0.115885 -0.148440
v 0.344361 0.115885 0.148440
v -0.177844 0.740666 -0.148440
v -0.177844 0.740666 0.148440
v 0.227305 0.582165 0.103913
v 0.227305 0.789990 0.103913
v 0.227305 0.582165 -0.103912
v 0.227305 0.789990 -0.103912
v 0.435130 0.582165 0.103913
v 0.435130 0.789990 0.103913
v 0.435130 0.582165 -0.103912
v 0.435130 0.789990 -0.103912
v 0.031218 0.582165 -0.103912
v 0.031218 0.582165 0.103913
v 0.031218 0.789990 0.103913
v 0.031218 0.789990 -0.103912
v 0.631218 0.789990 -0.103912
v 0.631218 0.582165 -0.103912
v 0.631218 0.582165 0.103913
v 0.631218 0.789990 0.103913
v 0.227305 0.986078 0.103913
v 0.227305 0.986078 -0.103912
v 0.435130 0.986078 -0.103912
v 0.435130 0.986078 0.103913
v 0.227305 0.382165 -0.103912
v 0.227305 0.382165 0.103913
v 0.435130 0.382165 -0.103912
v 0.435130 0.382165 0.103913
vn -1.0000 -0.0000 -0.0000
vn -0.0000 -0.0000 -1.0000
vn 1.0000 -0.0000 -0.0000
vn -0.0000 -0.0000 1.0000
vn -0.0000 -1.0000 -0.0000
vn 0.7673 0.6413 -0.0000
vn -0.7673 0.6413 -0.0000
vn -0.0000 1.0000 -0.0000
vt 0.625000 0.000000
vt 0.375000 0.250000
vt 0.375000 0.000000
vt 0.625000 0.250000
vt 0.375000 0.500000
vt 0.625000 0.500000
vt 0.375000 0.750000
vt 0.625000 0.750000
vt 0.375000 1.000000
vt 0.125000 0.750000
vt 0.125000 0.500000
vt 0.625000 1.000000
vt 0.875000 0.500000
vt 0.875000 0.750000
s 0
f 2/1/1 3/2/1 1/3/1
f 4/4/2 7/5/2 3/2/2
f 8/6/3 5/7/3 7/5/3
f 6/8/4 1/9/4 5/7/4
f 7/5/5 1/10/5 3/11/5
f 8/6/2 4/4/2 13/6/2
f 13/4/2 4/4/2 10/4/2
f 2/12/4 6/8/4 14/12/4
f 11/6/6 14/8/6 12/8/6
f 9/1/7 13/4/7 10/4/7
f 2/12/4 14/12/4 9/12/4
f 8/6/5 12/8/5 6/8/5
f 8/6/2 13/6/2 11/6/2
f 2/1/5 10/4/5 4/4/5
f 14/8/4 6/8/4 12/8/4
f 20/8/8 27/6/8 22/6/8
f 18/4/2 21/5/2 17/2/2
f 16/12/4 24/9/4 15/9/4
f 20/8/4 15/9/4 19/7/4
f 17/11/1 36/10/1 15/10/1
f 22/6/3 34/8/3 20/8/3
f 25/1/1 23/2/1 24/3/1
f 27/6/3 29/7/3 28/5/3
f 22/6/2 28/5/2 21/5/2
f 18/13/8 25/14/8 16/14/8
f 15/10/5 23/11/5 17/11/5
f 19/7/4 30/8/4 20/8/4
f 21/5/5 29/7/5 19/7/5
f 17/2/2 26/4/2 18/4/2
f 32/13/8 34/8/8 33/6/8
f 16/14/1 32/13/1 18/13/1
f 20/8/4 31/12/4 16/12/4
f 18/4/2 33/6/2 22/6/2
f 37/5/5 36/10/5 35/11/5
f 19/7/3 37/5/3 21/5/3
f 15/9/4 38/7/4 19/7/4
f 21/5/2 35/2/2 17/2/2
f 2/1/1 4/4/1 3/2/1
f 4/4/2 8/6/2 7/5/2
f 8/6/3 6/8/3 5/7/3
f 6/8/4 2/12/4 1/9/4
f 7/5/5 5/7/5 1/10/5
f 11/6/6 13/6/6 14/8/6
f 9/1/7 14/1/7 13/4/7
f 8/6/5 11/6/5 12/8/5
f 2/1/5 9/1/5 10/4/5
f 20/8/8 30/8/8 27/6/8
f 18/4/2 22/6/2 21/5/2
f 16/12/4 25/12/4 24/9/4
f 20/8/4 16/12/4 15/9/4
f 17/11/1 35/11/1 36/10/1
f 22/6/3 33/6/3 34/8/3
f 25/1/1 26/4/1 23/2/1
f 27/6/3 30/8/3 29/7/3
f 22/6/2 27/6/2 28/5/2
f 18/13/8 26/13/8 25/14/8
f 15/10/5 24/10/5 23/11/5
f 19/7/4 29/7/4 30/8/4
f 21/5/5 28/5/5 29/7/5
f 17/2/2 23/2/2 26/4/2
f 32/13/8 31/14/8 34/8/8
f 16/14/1 31/14/1 32/13/1
f 20/8/4 34/8/4 31/12/4
f 18/4/2 32/4/2 33/6/2
f 37/5/5 38/7/5 36/10/5
f 19/7/3 38/7/3 37/5/3
f 15/9/4 36/9/4 38/7/4
f 21/5/2 37/5/2 35/2/2
