# Blender 4.0.2
# www.blender.org
o Circle
v 0.375857 0.089619 0.127705
v 0.375857 -0.089619 0.127705
v 0.410152 -0.082797 0.127705
v 0.439227 -0.063370 0.127705
v 0.458654 -0.034296 0.127705
v 0.465476 0.000000 0.127705
v 0.458654 0.034296 0.127705
v 0.439227 0.063370 0.127705
v 0.410152 0.082797 0.127705
v -0.375857 0.089619 0.127705
v -0.375857 -0.089619 0.127705
v -0.410152 -0.082797 0.127705
v -0.439227 -0.063370 0.127705
v -0.458654 -0.034296 0.127705
v -0.465476 0.000000 0.127705
v -0.458654 0.034296 0.127705
v -0.439227 0.063370 0.127705
v -0.410152 0.082797 0.127705
v 0.401461 -0.061815 0.127705
v 0.373663 -0.067345 0.127705
v 0.423168 -0.047311 0.127705
v 0.437672 -0.025605 0.127705
v 0.442765 0.000000 0.127705
v 0.437672 0.025605 0.127705
v 0.423168 0.047311 0.127705
v 0.401461 0.061815 0.127705
v 0.373663 0.067345 0.127705
v -0.373663 -0.067345 0.127705
v -0.373663 0.067345 0.127705
v -0.401461 -0.061815 0.127705
v -0.423168 -0.047311 0.127705
v -0.437672 -0.025605 0.127705
v -0.442765 0.000000 0.127705
v -0.437672 0.025605 0.127705
v -0.423168 0.047311 0.127705
v -0.401461 0.061815 0.127705
v 0.375857 0.089619 -0.128199
v 0.375857 -0.089619 -0.128199
v 0.410152 -0.082797 -0.128199
v 0.439227 -0.063370 -0.128199
v 0.458654 -0.034296 -0.128199
v 0.465476 0.000000 -0.128199
v 0.458654 0.034296 -0.128199
v 0.439227 0.063370 -0.128199
v 0.410152 0.082797 -0.128199
v -0.375857 0.089619 -0.128199
v -0.375857 -0.089619 -0.128199
v -0.410152 -0.082797 -0.128199
v -0.439227 -0.063370 -0.128199
v -0.458654 -0.034296 -0.128199
v -0.465476 0.000000 -0.128199
v -0.458654 0.034296 -0.128199
v -0.439227 0.063370 -0.128199
v -0.410152 0.082797 -0.128199
v 0.401461 -0.061815 -0.128199
v 0.373663 -0.067345 -0.128199
v 0.423168 -0.047311 -0.128199
v 0.437672 -0.025605 -0.128199
v 0.442765 0.000000 -0.128199
v 0.437672 0.025605 -0.128199
v 0.423168 0.047311 -0.128199
v 0.401461 0.061815 -0.128199
v 0.373663 0.067345 -0.128199
v -0.373663 -0.067345 -0.128199
v -0.373663 0.067345 -0.128199
v -0.401461 -0.061815 -0.128199
v -0.423168 -0.047311 -0.128199
v -0.437672 -0.025605 -0.128199
v -0.442765 0.000000 -0.128199
v -0.437672 0.025605 -0.128199
v -0.423168 0.047311 -0.128199
v -0.401461 0.061815 -0.128199
v -0.360632 0.063634 0.081654
v -0.409721 0.054877 0.081654
v -0.438240 0.013974 0.081654
v -0.429483 -0.035115 0.081654
v -0.388580 -0.063634 0.081654
v -0.339491 -0.054877 0.081654
v -0.310972 -0.013974 0.081654
v -0.319729 0.035115 0.081654
v -0.360632 0.063634 -0.079524
v -0.409721 0.054877 -0.079524
v -0.438240 0.013974 -0.079524
v -0.429483 -0.035115 -0.079524
v -0.388580 -0.063634 -0.079524
v -0.339491 -0.054877 -0.079524
v -0.310972 -0.013974 -0.079524
v -0.319729 0.035115 -0.079524
v -0.374606 0.000000 0.081654
v -0.374606 0.000000 -0.079524
v 0.440580 0.000000 0.081654
v 0.421498 -0.046068 0.081654
v 0.375430 -0.065150 0.081654
v 0.329361 -0.046068 0.081654
v 0.310279 -0.000000 0.081654
v 0.329361 0.046068 0.081654
v 0.375429 0.065150 0.081654
v 0.421497 0.046068 0.081654
v 0.375429 0.065150 -0.079524
v 0.329361 0.046068 -0.079524
v 0.310279 -0.000000 -0.079524
v 0.329361 -0.046068 -0.079524
v 0.375430 -0.065150 -0.079524
v 0.421498 -0.046068 -0.079524
v 0.440580 0.000000 -0.079524
v 0.421497 0.046068 -0.079524
v 0.375429 -0.000000 0.081654
v 0.375429 0.000000 -0.079524
vn -0.0000 -0.0000 1.0000
vn -0.0000 -0.0000 -1.0000
vn 0.1951 -0.9808 -0.0000
vn -0.8315 -0.5556 -0.0000
vn -0.9808 0.1951 -0.0000
vn 0.5556 -0.8315 -0.0000
vn -0.5556 -0.8315 -0.0000
vn -0.8315 0.5556 -0.0000
vn 0.8315 -0.5556 -0.0000
vn -0.1951 -0.9808 -0.0000
vn -0.5556 0.8315 -0.0000
vn 0.9808 -0.1951 -0.0000
vn -0.0000 1.0000 -0.0000
vn -0.1951 0.9808 -0.0000
vn 0.9808 0.1951 -0.0000
vn -0.0000 -1.0000 -0.0000
vn 0.8315 0.5556 -0.0000
vn 0.1951 0.9808 -0.0000
vn 0.5556 0.8315 -0.0000
vn -0.9808 -0.1951 -0.0000
vn 0.9845 0.1756 -0.0000
vn 0.1756 -0.9845 -0.0000
vn -0.9845 -0.1756 -0.0000
vn -0.1756 0.9845 -0.0000
vn 0.5719 0.8203 -0.0000
vn 0.8203 -0.5719 -0.0000
vn -0.5719 -0.8203 -0.0000
vn -0.8203 0.5719 -0.0000
vn 0.9239 0.3827 -0.0000
vn 0.3827 -0.9239 -0.0000
vn -0.9239 -0.3827 -0.0000
vn -0.3827 0.9239 -0.0000
vn 0.3827 0.9239 -0.0000
vn 0.9239 -0.3827 -0.0000
vn -0.3827 -0.9239 -0.0000
vn -0.9239 0.3827 -0.0000
vt 0.000000 0.000000
s 0
f 19/1/1 2/1/1 3/1/1
f 21/1/1 3/1/1 4/1/1
f 21/1/1 5/1/1 22/1/1
f 23/1/1 5/1/1 6/1/1
f 23/1/1 7/1/1 24/1/1
f 25/1/1 7/1/1 8/1/1
f 25/1/1 9/1/1 26/1/1
f 26/1/1 1/1/1 27/1/1
f 20/1/1 11/1/1 2/1/1
f 29/1/1 1/1/1 10/1/1
f 30/1/1 11/1/1 28/1/1
f 31/1/1 12/1/1 30/1/1
f 31/1/1 14/1/1 13/1/1
f 33/1/1 14/1/1 32/1/1
f 33/1/1 16/1/1 15/1/1
f 35/1/1 16/1/1 34/1/1
f 35/1/1 18/1/1 17/1/1
f 36/1/1 10/1/1 18/1/1
f 55/1/2 38/1/2 56/1/2
f 57/1/2 39/1/2 55/1/2
f 41/1/2 57/1/2 58/1/2
f 59/1/2 41/1/2 58/1/2
f 43/1/2 59/1/2 60/1/2
f 61/1/2 43/1/2 60/1/2
f 45/1/2 61/1/2 62/1/2
f 37/1/2 62/1/2 63/1/2
f 38/1/2 64/1/2 56/1/2
f 46/1/2 63/1/2 65/1/2
f 47/1/2 66/1/2 64/1/2
f 48/1/2 67/1/2 66/1/2
f 67/1/2 50/1/2 68/1/2
f 50/1/2 69/1/2 68/1/2
f 69/1/2 52/1/2 70/1/2
f 52/1/2 71/1/2 70/1/2
f 71/1/2 54/1/2 72/1/2
f 72/1/2 46/1/2 65/1/2
f 38/1/3 3/1/3 2/1/3
f 61/1/4 24/1/4 25/1/4
f 52/1/5 15/1/5 16/1/5
f 39/1/6 4/1/6 3/1/6
f 62/1/7 25/1/7 26/1/7
f 53/1/8 16/1/8 17/1/8
f 40/1/9 5/1/9 4/1/9
f 27/1/10 62/1/10 26/1/10
f 54/1/11 17/1/11 18/1/11
f 41/1/12 6/1/12 5/1/12
f 56/1/13 28/1/13 20/1/13
f 46/1/14 18/1/14 10/1/14
f 42/1/15 7/1/15 6/1/15
f 65/1/16 27/1/16 29/1/16
f 43/1/17 8/1/17 7/1/17
f 28/1/18 66/1/18 30/1/18
f 44/1/19 9/1/19 8/1/19
f 66/1/19 31/1/19 30/1/19
f 45/1/18 1/1/18 9/1/18
f 67/1/17 32/1/17 31/1/17
f 47/1/16 2/1/16 11/1/16
f 68/1/15 33/1/15 32/1/15
f 19/1/14 56/1/14 20/1/14
f 37/1/13 10/1/13 1/1/13
f 69/1/12 34/1/12 33/1/12
f 57/1/11 19/1/11 21/1/11
f 48/1/10 11/1/10 12/1/10
f 70/1/9 35/1/9 34/1/9
f 58/1/8 21/1/8 22/1/8
f 49/1/7 12/1/7 13/1/7
f 71/1/6 36/1/6 35/1/6
f 59/1/5 22/1/5 23/1/5
f 50/1/4 13/1/4 14/1/4
f 36/1/3 65/1/3 29/1/3
f 60/1/20 23/1/20 24/1/20
f 51/1/20 14/1/20 15/1/20
f 79/1/21 88/1/21 80/1/21
f 77/1/22 86/1/22 78/1/22
f 76/1/23 83/1/23 84/1/23
f 73/1/24 82/1/24 74/1/24
f 80/1/25 81/1/25 73/1/25
f 78/1/26 87/1/26 79/1/26
f 76/1/27 85/1/27 77/1/27
f 74/1/28 83/1/28 75/1/28
f 80/1/1 73/1/1 89/1/1
f 78/1/1 79/1/1 89/1/1
f 76/1/1 77/1/1 89/1/1
f 74/1/1 75/1/1 89/1/1
f 79/1/1 80/1/1 89/1/1
f 77/1/1 78/1/1 89/1/1
f 75/1/1 76/1/1 89/1/1
f 73/1/1 74/1/1 89/1/1
f 88/1/2 87/1/2 90/1/2
f 86/1/2 85/1/2 90/1/2
f 84/1/2 83/1/2 90/1/2
f 82/1/2 81/1/2 90/1/2
f 81/1/2 88/1/2 90/1/2
f 87/1/2 86/1/2 90/1/2
f 85/1/2 84/1/2 90/1/2
f 83/1/2 82/1/2 90/1/2
f 91/1/29 106/1/29 98/1/29
f 93/1/30 104/1/30 92/1/30
f 94/1/31 101/1/31 102/1/31
f 96/1/32 99/1/32 100/1/32
f 98/1/33 99/1/33 97/1/33
f 92/1/34 105/1/34 91/1/34
f 93/1/35 102/1/35 103/1/35
f 96/1/36 101/1/36 95/1/36
f 98/1/1 97/1/1 107/1/1
f 92/1/1 91/1/1 107/1/1
f 94/1/1 93/1/1 107/1/1
f 96/1/1 95/1/1 107/1/1
f 91/1/1 98/1/1 107/1/1
f 93/1/1 92/1/1 107/1/1
f 95/1/1 94/1/1 107/1/1
f 97/1/1 96/1/1 107/1/1
f 106/1/2 105/1/2 108/1/2
f 104/1/2 103/1/2 108/1/2
f 102/1/2 101/1/2 108/1/2
f 100/1/2 99/1/2 108/1/2
f 99/1/2 106/1/2 108/1/2
f 105/1/2 104/1/2 108/1/2
f 103/1/2 102/1/2 108/1/2
f 101/1/2 100/1/2 108/1/2
f 19/1/1 20/1/1 2/1/1
f 21/1/1 19/1/1 3/1/1
f 21/1/1 4/1/1 5/1/1
f 23/1/1 22/1/1 5/1/1
f 23/1/1 6/1/1 7/1/1
f 25/1/1 24/1/1 7/1/1
f 25/1/1 8/1/1 9/1/1
f 26/1/1 9/1/1 1/1/1
f 20/1/1 28/1/1 11/1/1
f 29/1/1 27/1/1 1/1/1
f 30/1/1 12/1/1 11/1/1
f 31/1/1 13/1/1 12/1/1
f 31/1/1 32/1/1 14/1/1
f 33/1/1 15/1/1 14/1/1
f 33/1/1 34/1/1 16/1/1
f 35/1/1 17/1/1 16/1/1
f 35/1/1 36/1/1 18/1/1
f 36/1/1 29/1/1 10/1/1
f 55/1/2 39/1/2 38/1/2
f 57/1/2 40/1/2 39/1/2
f 41/1/2 40/1/2 57/1/2
f 59/1/2 42/1/2 41/1/2
f 43/1/2 42/1/2 59/1/2
f 61/1/2 44/1/2 43/1/2
f 45/1/2 44/1/2 61/1/2
f 37/1/2 45/1/2 62/1/2
f 38/1/2 47/1/2 64/1/2
f 46/1/2 37/1/2 63/1/2
f 47/1/2 48/1/2 66/1/2
f 48/1/2 49/1/2 67/1/2
f 67/1/2 49/1/2 50/1/2
f 50/1/2 51/1/2 69/1/2
f 69/1/2 51/1/2 52/1/2
f 52/1/2 53/1/2 71/1/2
f 71/1/2 53/1/2 54/1/2
f 72/1/2 54/1/2 46/1/2
f 38/1/3 39/1/3 3/1/3
f 61/1/4 60/1/4 24/1/4
f 52/1/5 51/1/5 15/1/5
f 39/1/6 40/1/6 4/1/6
f 62/1/7 61/1/7 25/1/7
f 53/1/8 52/1/8 16/1/8
f 40/1/9 41/1/9 5/1/9
f 27/1/10 63/1/10 62/1/10
f 54/1/11 53/1/11 17/1/11
f 41/1/12 42/1/12 6/1/12
f 56/1/13 64/1/13 28/1/13
f 46/1/14 54/1/14 18/1/14
f 42/1/15 43/1/15 7/1/15
f 65/1/16 63/1/16 27/1/16
f 43/1/17 44/1/17 8/1/17
f 28/1/18 64/1/18 66/1/18
f 44/1/19 45/1/19 9/1/19
f 66/1/19 67/1/19 31/1/19
f 45/1/18 37/1/18 1/1/18
f 67/1/17 68/1/17 32/1/17
f 47/1/16 38/1/16 2/1/16
f 68/1/15 69/1/15 33/1/15
f 19/1/14 55/1/14 56/1/14
f 37/1/13 46/1/13 10/1/13
f 69/1/12 70/1/12 34/1/12
f 57/1/11 55/1/11 19/1/11
f 48/1/10 47/1/10 11/1/10
f 70/1/9 71/1/9 35/1/9
f 58/1/8 57/1/8 21/1/8
f 49/1/7 48/1/7 12/1/7
f 71/1/6 72/1/6 36/1/6
f 59/1/5 58/1/5 22/1/5
f 50/1/4 49/1/4 13/1/4
f 36/1/3 72/1/3 65/1/3
f 60/1/20 59/1/20 23/1/20
f 51/1/20 50/1/20 14/1/20
f 79/1/21 87/1/21 88/1/21
f 77/1/22 85/1/22 86/1/22
f 76/1/23 75/1/23 83/1/23
f 73/1/24 81/1/24 82/1/24
f 80/1/25 88/1/25 81/1/25
f 78/1/26 86/1/26 87/1/26
f 76/1/27 84/1/27 85/1/27
f 74/1/28 82/1/28 83/1/28
f 91/1/29 105/1/29 106/1/29
f 93/1/30 103/1/30 104/1/30
f 94/1/31 95/1/31 101/1/31
f 96/1/32 97/1/32 99/1/32
f 98/1/33 106/1/33 99/1/33
f 92/1/34 104/1/34 105/1/34
f 93/1/35 94/1/35 102/1/35
f 96/1/36 100/1/36 101/1/36
